<svg width="60" height="60" viewBox="0 0 60 60" fill="none" xmlns="http://www.w3.org/2000/svg">
<g clip-path="url(#clip0_1_423)">
<path d="M28.996 49C26.79 49 24.996 50.794 24.996 53C24.996 55.206 26.79 57 28.996 57C31.202 57 32.996 55.206 32.996 53C32.996 50.794 31.201 49 28.996 49ZM28.996 55C27.893 55 26.996 54.103 26.996 53C26.996 51.897 27.893 51 28.996 51C30.099 51 30.996 51.897 30.996 53C30.996 54.103 30.099 55 28.996 55Z" fill="white"/>
<path d="M25.996 5H29.996C30.548 5 30.996 4.553 30.996 4C30.996 3.447 30.548 3 29.996 3H25.996C25.444 3 24.996 3.447 24.996 4C24.996 4.553 25.443 5 25.996 5Z" fill="white"/>
<path d="M32.996 5H33.996C34.548 5 34.996 4.553 34.996 4C34.996 3.447 34.548 3 33.996 3H32.996C32.444 3 31.996 3.447 31.996 4C31.996 4.553 32.443 5 32.996 5Z" fill="white"/>
<path d="M4.19899 13.342L3.94599 12.398C3.80299 11.865 3.25699 11.546 2.72099 11.691C2.18799 11.835 1.87099 12.382 2.01399 12.916L2.26699 13.86C2.38699 14.307 2.79099 14.601 3.23199 14.601C3.31699 14.601 3.40499 14.59 3.49199 14.567C4.02499 14.423 4.34199 13.875 4.19899 13.342Z" fill="white"/>
<path d="M2.106 9.86296C2.656 9.80996 3.059 9.32196 3.006 8.77296C2.998 8.69196 2.994 8.61296 2.994 8.53196C2.994 8.37996 3.009 8.22896 3.036 8.08296C3.14199 7.53996 2.786 7.01696 2.244 6.91196C1.703 6.81296 1.178 7.16396 1.074 7.70596C1.021 7.98096 0.994995 8.26096 0.994995 8.53396C0.994995 8.67596 1.002 8.81896 1.016 8.96396C1.065 9.47996 1.5 9.86796 2.01 9.86796C2.042 9.86796 2.074 9.86696 2.106 9.86296Z" fill="white"/>
<path d="M6.72902 22.788L6.47602 21.843C6.33302 21.31 5.78602 20.989 5.25202 21.136C4.71802 21.279 4.40102 21.826 4.54402 22.361L4.79702 23.306C4.91702 23.752 5.32002 24.047 5.76202 24.047C5.84702 24.047 5.93402 24.036 6.02102 24.013C6.55602 23.87 6.87302 23.322 6.72902 22.788Z" fill="white"/>
<path d="M11.792 41.68L11.539 40.736C11.396 40.202 10.849 39.882 10.314 40.029C9.78101 40.173 9.46401 40.72 9.60701 41.254L9.86001 42.198C9.98001 42.645 10.384 42.939 10.825 42.939C10.91 42.939 10.998 42.928 11.085 42.905C11.619 42.761 11.935 42.213 11.792 41.68Z" fill="white"/>
<path d="M5.46401 18.064L5.21101 17.12C5.06801 16.586 4.52101 16.266 3.98601 16.413C3.45301 16.557 3.13601 17.104 3.27901 17.638L3.53201 18.582C3.65201 19.029 4.05601 19.323 4.49701 19.323C4.58201 19.323 4.67001 19.312 4.75701 19.289C5.29101 19.146 5.60701 18.598 5.46401 18.064Z" fill="white"/>
<path d="M4.615 6.22303C4.7 6.22303 4.787 6.21203 4.874 6.18903L5.819 5.93603C6.352 5.79303 6.669 5.24603 6.526 4.71103C6.383 4.17803 5.837 3.85503 5.301 4.00403L4.356 4.25703C3.823 4.40003 3.506 4.94703 3.649 5.48203C3.769 5.92803 4.173 6.22303 4.615 6.22303Z" fill="white"/>
<path d="M9.338 4.95605C9.423 4.95605 9.51 4.94505 9.597 4.92205L10.541 4.66905C11.074 4.52605 11.391 3.97805 11.248 3.44405C11.105 2.91005 10.56 2.59005 10.024 2.73705L9.08 2.99005C8.547 3.13305 8.23 3.68105 8.373 4.21505C8.492 4.66105 8.896 4.95605 9.338 4.95605Z" fill="white"/>
<path d="M10.526 36.957L10.273 36.012C10.13 35.479 9.58197 35.161 9.04797 35.305C8.51397 35.448 8.19796 35.996 8.34096 36.53L8.59397 37.475C8.71397 37.922 9.11797 38.216 9.55897 38.216C9.64397 38.216 9.73197 38.205 9.81797 38.182C10.353 38.039 10.669 37.49 10.526 36.957Z" fill="white"/>
<path d="M7.99501 27.511L7.74201 26.567C7.59901 26.035 7.05201 25.715 6.51701 25.86C5.98401 26.003 5.66701 26.551 5.81001 27.085L6.06301 28.029C6.18301 28.475 6.58601 28.77 7.02801 28.77C7.11301 28.77 7.20001 28.759 7.28701 28.736C7.82101 28.593 8.13801 28.044 7.99501 27.511Z" fill="white"/>
<path d="M9.26101 32.2331L9.00801 31.2891C8.86501 30.7561 8.31801 30.4341 7.78301 30.5821C7.25001 30.7251 6.93301 31.2731 7.07601 31.8071L7.32901 32.7511C7.44901 33.1971 7.85201 33.4921 8.29401 33.4921C8.37901 33.4921 8.46601 33.4811 8.55301 33.4581C9.08701 33.3151 9.40401 32.7671 9.26101 32.2331Z" fill="white"/>
<path d="M56.015 16.414C55.479 16.268 54.933 16.587 54.79 17.121L54.537 18.065C54.394 18.598 54.71 19.146 55.244 19.29C55.331 19.313 55.418 19.324 55.504 19.324C55.945 19.324 56.35 19.03 56.469 18.583L56.722 17.639C56.864 17.105 56.548 16.558 56.015 16.414Z" fill="white"/>
<path d="M57.279 11.6899C56.742 11.5439 56.197 11.8649 56.054 12.3969L55.801 13.3409C55.658 13.8739 55.975 14.4229 56.508 14.5659C56.595 14.5889 56.682 14.5999 56.767 14.5999C57.209 14.5999 57.613 14.3049 57.732 13.8589L57.985 12.9149C58.129 12.3819 57.813 11.8329 57.279 11.6899Z" fill="white"/>
<path d="M58.926 7.707C58.823 7.166 58.302 6.815 57.756 6.913C57.214 7.017 56.858 7.541 56.962 8.084C56.99 8.23 57.005 8.381 57.004 8.534C57.004 8.614 57 8.693 56.992 8.773C56.94 9.323 57.343 9.811 57.892 9.864C57.924 9.868 57.956 9.869 57.988 9.869C58.498 9.869 58.933 9.481 58.983 8.965C58.997 8.82 59.004 8.677 59.004 8.536C59.005 8.261 58.979 7.982 58.926 7.707Z" fill="white"/>
<path d="M49.459 4.66899L50.403 4.92199C50.49 4.94499 50.577 4.95599 50.662 4.95599C51.104 4.95599 51.508 4.66099 51.627 4.21499C51.77 3.68199 51.453 3.13299 50.92 2.98999L49.976 2.73699C49.438 2.58999 48.894 2.91099 48.751 3.44399C48.609 3.97799 48.926 4.52599 49.459 4.66899Z" fill="white"/>
<path d="M54.182 5.93605L55.127 6.18905C55.214 6.21205 55.301 6.22305 55.386 6.22305C55.828 6.22305 56.232 5.92805 56.351 5.48205C56.494 4.94805 56.177 4.40005 55.644 4.25705L54.699 4.00405C54.163 3.85605 53.616 4.17805 53.474 4.71105C53.332 5.24505 53.648 5.79305 54.182 5.93605Z" fill="white"/>
<path d="M54.749 21.137C54.214 20.994 53.666 21.311 53.524 21.844L53.271 22.788C53.128 23.321 53.444 23.869 53.978 24.013C54.065 24.036 54.152 24.047 54.238 24.047C54.679 24.047 55.084 23.753 55.203 23.306L55.456 22.362C55.599 21.828 55.282 21.28 54.749 21.137Z" fill="white"/>
<path d="M48.421 44.751C47.889 44.609 47.339 44.924 47.196 45.458L47.005 46.17V45.998C47.005 45.981 46.996 45.967 46.995 45.95V42.135C46.996 42.118 47.005 42.104 47.005 42.087V41.109C47.005 41.092 46.996 41.078 46.995 41.061V37.246C46.996 37.229 47.005 37.215 47.005 37.198V36.22C47.005 36.203 46.996 36.189 46.995 36.172V32.357C46.996 32.34 47.005 32.326 47.005 32.309V31.331C47.005 31.314 46.996 31.3 46.995 31.283V27.468C46.996 27.451 47.005 27.437 47.005 27.42V26.442C47.005 26.425 46.996 26.411 46.995 26.394V22.579C46.996 22.562 47.005 22.548 47.005 22.531V21.55C47.005 21.533 46.996 21.519 46.995 21.502V17.687C46.996 17.67 47.005 17.656 47.005 17.639V16.66C47.005 16.643 46.996 16.629 46.995 16.612V12.798C46.996 12.781 47.005 12.767 47.005 12.75V11.771C47.005 11.754 46.996 11.74 46.995 11.723V7.908C46.996 7.891 47.005 7.877 47.005 7.86V6.881C47.005 6.864 46.996 6.85 46.995 6.833V4.405C46.996 1.977 45.02 0 42.59 0H17.401C14.972 0 12.996 1.977 12.996 4.405V6.879V6.881V7.859V7.861V11.768V11.77V12.748V12.75V16.656V16.658V17.637V17.639V21.545V21.547V22.526V22.528V26.434V26.436V27.415V27.417V31.323V31.325V32.304V32.306V36.212V36.214V37.193V37.195V41.101V41.103V42.081V42.083V45.99V45.992V46.164L12.805 45.452C12.662 44.919 12.115 44.597 11.58 44.745C11.047 44.888 10.73 45.436 10.873 45.97L11.126 46.914C11.269 47.446 11.814 47.767 12.351 47.621C12.648 47.542 12.875 47.336 12.997 47.079V49.452C12.947 49.458 12.897 49.454 12.847 49.468C12.314 49.611 11.997 50.159 12.14 50.693L12.393 51.637C12.478 51.955 12.712 52.189 12.997 52.301V55.589C12.997 58.018 14.973 59.994 17.402 59.994H42.59C45.019 59.994 46.995 58.017 46.995 55.589V52.306C47.285 52.196 47.523 51.961 47.609 51.638L47.862 50.694C48.005 50.161 47.688 49.612 47.155 49.469C47.101 49.455 47.049 49.458 46.995 49.453V47.089C46.996 47.084 46.999 47.08 46.999 47.074C47.119 47.335 47.35 47.542 47.649 47.622C48.183 47.765 48.731 47.449 48.874 46.915L49.127 45.97C49.271 45.442 48.955 44.894 48.421 44.751ZM14.996 8H44.996V46H14.996V8ZM17.401 2H42.59C43.916 2 44.995 3.079 44.995 4.405V6H14.995V4.405C14.996 3.079 16.075 2 17.401 2ZM42.59 58H17.401C16.075 58 14.996 56.921 14.996 55.595V48H44.996V55.595C44.996 56.921 43.917 58 42.59 58Z" fill="white"/>
<path d="M50.952 35.306C50.415 35.159 49.87 35.48 49.727 36.013L49.474 36.957C49.331 37.49 49.648 38.039 50.181 38.182C50.268 38.205 50.355 38.216 50.44 38.216C50.882 38.216 51.286 37.921 51.405 37.475L51.658 36.531C51.802 35.997 51.485 35.448 50.952 35.306Z" fill="white"/>
<path d="M49.687 40.028C49.15 39.882 48.605 40.201 48.462 40.735L48.209 41.679C48.066 42.212 48.382 42.76 48.916 42.904C49.003 42.927 49.09 42.938 49.176 42.938C49.617 42.938 50.022 42.644 50.141 42.197L50.394 41.253C50.537 40.72 50.22 40.172 49.687 40.028Z" fill="white"/>
<path d="M52.217 30.5821C51.683 30.4341 51.135 30.7561 50.993 31.2891L50.74 32.2341C50.597 32.7681 50.914 33.3161 51.448 33.4591C51.534 33.4821 51.621 33.4931 51.707 33.4931C52.149 33.4931 52.553 33.1981 52.672 32.7521L52.925 31.8071C53.067 31.2721 52.75 30.7251 52.217 30.5821Z" fill="white"/>
<path d="M53.483 25.859C52.946 25.714 52.401 26.034 52.258 26.566L52.005 27.51C51.862 28.043 52.179 28.592 52.712 28.735C52.799 28.758 52.886 28.769 52.971 28.769C53.413 28.769 53.817 28.474 53.936 28.028L54.189 27.084C54.333 26.551 54.016 26.002 53.483 25.859Z" fill="white"/>
</g>
<defs>
<clipPath id="clip0_1_423">
<rect width="60" height="60" fill="white"/>
</clipPath>
</defs>
</svg>
