<svg width="66" height="66" viewBox="0 0 66 66" fill="none" xmlns="http://www.w3.org/2000/svg">
    <g id="chat">
        <path d="M9.17518 14.5374C7.56179 14.5374 6.24939 15.8499 6.24939 17.4631C6.24939 19.0765 7.56191 20.3889 9.17518 20.3889C10.7884 20.3889 12.101 19.0764 12.101 17.4631C12.1011 15.8499 10.7886 14.5374 9.17518 14.5374ZM9.17505 18.4553C8.62797 18.4553 8.18298 18.0103 8.18298 17.4633C8.18298 16.9162 8.62797 16.4712 9.17505 16.4712C9.72213 16.4712 10.1671 16.9162 10.1671 17.4633C10.1671 18.0103 9.72226 18.4553 9.17505 18.4553Z"
             />
        <path d="M17.2595 14.5374C15.6461 14.5374 14.3337 15.8499 14.3337 17.4631C14.3337 19.0765 15.6463 20.3889 17.2595 20.3889C18.8729 20.3889 20.1853 19.0764 20.1853 17.4631C20.1853 15.8499 18.8729 14.5374 17.2595 14.5374ZM17.2594 18.4553C16.7123 18.4553 16.2673 18.0103 16.2673 17.4633C16.2673 16.9162 16.7124 16.4712 17.2594 16.4712C17.8065 16.4712 18.2515 16.9162 18.2515 17.4633C18.2515 18.0103 17.8065 18.4553 17.2594 18.4553Z"
              />
        <path d="M25.3439 14.5374C23.7305 14.5374 22.4181 15.8499 22.4181 17.4631C22.4181 19.0765 23.7306 20.3889 25.3439 20.3889C26.9573 20.3889 28.2697 19.0764 28.2697 17.4631C28.2697 15.8499 26.9573 14.5374 25.3439 14.5374ZM25.3439 18.4553C24.7968 18.4553 24.3518 18.0103 24.3518 17.4633C24.3518 16.9162 24.7968 16.4712 25.3439 16.4712C25.891 16.4712 26.3359 16.9162 26.3359 17.4633C26.3359 18.0103 25.891 18.4553 25.3439 18.4553Z"
              />
        <path d="M58.5711 42.9492H23.3848C22.8508 42.9492 22.418 43.3821 22.418 43.916C22.418 44.4499 22.8508 44.8828 23.3848 44.8828H58.5713C59.1052 44.8828 59.5381 44.4499 59.5381 43.916C59.5381 43.3821 59.1052 42.9492 58.5711 42.9492Z"
              />
        <path d="M65.0332 31.9261C65.5671 31.9261 66 31.4932 66 30.9593V17.1908C66 15.218 64.395 13.613 62.4221 13.613H34.9898V6.52019C34.9898 4.98762 33.743 3.74097 32.2106 3.74097H19.5154C18.9814 3.74097 18.5486 4.17383 18.5486 4.70776C18.5486 5.24169 18.9814 5.67456 19.5154 5.67456H32.2106C32.6768 5.67456 33.0561 6.0538 33.0561 6.52006C33.0561 7.14177 33.0561 27.519 33.0561 28.1403C33.0561 28.6066 32.6768 28.986 32.2106 28.986H29.6737C28.8405 28.986 28.1623 29.6639 28.1623 30.4973V35.3719L23.2684 29.7314C22.8573 29.2576 22.2617 28.9858 21.6343 28.9858C21.1272 28.9858 3.25424 28.9858 2.77922 28.9858C2.31296 28.9858 1.93372 28.6066 1.93372 28.1403V6.52019C1.93372 6.05393 2.31296 5.67469 2.77922 5.67469H15.0034C15.5373 5.67469 15.9702 5.24182 15.9702 4.70789C15.9702 4.17396 15.5373 3.7411 15.0034 3.7411H2.77922C1.24678 3.74097 0 4.98775 0 6.52019V28.1406C0 29.6732 1.24678 30.9198 2.77922 30.9198H16.4446V48.3375C16.4446 50.3104 18.0496 51.9154 20.0225 51.9154H23.4947V60.577C23.4947 62.1312 25.4265 62.8494 26.4432 61.6778L34.6873 52.1763C34.8311 52.0106 35.0394 51.9154 35.259 51.9154H62.4221C64.395 51.9154 66 50.3104 66 48.3375V35.4711C66 34.9372 65.5671 34.5043 65.0332 34.5043C64.4993 34.5043 64.0664 34.9372 64.0664 35.4711V48.3375C64.0664 49.2441 63.3289 49.9817 62.4222 49.9817H35.2591C34.4789 49.9817 33.7381 50.3197 33.2267 50.9089L25.4284 59.8967V51.7328C25.4284 50.7671 24.6429 49.9816 23.6772 49.9816H20.0225C19.1159 49.9816 18.3783 49.2441 18.3783 48.3374V30.9199H21.6343C21.701 30.9199 21.7641 30.9488 21.8077 30.9991L22.9414 32.3058C22.6307 32.4666 22.418 32.7904 22.418 33.1643C22.418 33.6983 22.8508 34.1311 23.3848 34.1311H24.5254L27.5121 37.5734H23.3848C22.8508 37.5734 22.418 38.0063 22.418 38.5402C22.418 39.0742 22.8508 39.507 23.3848 39.507H58.5711C59.1051 39.507 59.5379 39.0742 59.5379 38.5402C59.5379 38.0063 59.1051 37.5734 58.5711 37.5734H29.7589C29.9831 37.3052 30.096 36.973 30.096 36.6367V34.1313H58.5711C59.1051 34.1313 59.5379 33.6984 59.5379 33.1645C59.5379 32.6305 59.1051 32.1975 58.5711 32.1975H30.096V30.9199H32.2104C33.5245 30.9199 34.6358 30.0028 34.9189 28.7552H58.5711C59.1051 28.7552 59.5379 28.3224 59.5379 27.7884C59.5379 27.2545 59.1051 26.8216 58.5711 26.8216H34.9898V23.3793H58.5711C59.1051 23.3793 59.5379 22.9465 59.5379 22.4125C59.5379 21.8786 59.1051 21.4457 58.5711 21.4457H34.9898V15.5468H62.4221C63.3287 15.5468 64.0663 16.2843 64.0663 17.1909V30.9594C64.0663 31.4932 64.4991 31.9261 65.0332 31.9261Z"
              />
    </g>
    <g id="at">
        <g clip-path="url(#clip0_1_324)">
            <path d="M15.4571 2.26928C13.8158 0.756426 11.7741 0 9.33596 0C6.77292 0 4.5881 0.859241 2.78516 2.5814C0.982223 4.30355 0.0789185 6.44431 0.0789185 9.00734C0.0789185 11.4639 0.938159 13.5753 2.65297 15.3452C4.37512 17.1151 6.68847 18 9.60034 18C11.3555 18 13.0777 17.6401 14.7668 16.9168C15.3176 16.6818 15.5856 16.0502 15.3617 15.4957C15.1303 14.9229 14.4767 14.6585 13.9076 14.9009C12.4388 15.5324 10.9994 15.8482 9.59667 15.8482C7.36411 15.8482 5.63461 15.1689 4.40817 13.8066C3.18541 12.448 2.57219 10.8507 2.57219 9.01836C2.57219 7.02815 3.22947 5.36842 4.54036 4.0355C5.84758 2.70624 7.45958 2.03794 9.369 2.03794C11.1279 2.03794 12.615 2.58507 13.8268 3.67931C15.0385 4.77356 15.6444 6.15055 15.6444 7.81028C15.6444 8.94492 15.3653 9.89229 14.8109 10.645C14.2564 11.4015 13.6799 11.776 13.0814 11.776C12.7582 11.776 12.5967 11.6034 12.5967 11.2546C12.5967 10.9718 12.6187 10.6414 12.6591 10.2595L13.3421 4.67442H10.992L10.8415 5.22154C10.2429 4.73317 9.58565 4.48715 8.87329 4.48715C7.74232 4.48715 6.77292 4.9388 5.96876 5.83843C5.16093 6.73807 4.76068 7.89841 4.76068 9.31579C4.76068 10.7001 5.11686 11.8201 5.8329 12.6683C6.54893 13.5202 7.40817 13.9425 8.41429 13.9425C9.31392 13.9425 10.0814 13.5643 10.7203 12.8115C11.2013 13.5349 11.91 13.8947 12.8464 13.8947C14.2233 13.8947 15.4131 13.2962 16.4155 12.0955C17.418 10.8984 17.921 9.45165 17.921 7.75887C17.921 5.61444 17.1022 3.78213 15.4571 2.26928ZM10.0446 10.7185C9.62971 11.2766 9.134 11.5594 8.5575 11.5594C8.1646 11.5594 7.84881 11.3537 7.61013 10.9425C7.36778 10.5312 7.2466 10.0208 7.2466 9.40759C7.2466 8.65116 7.41551 8.04162 7.75334 7.57895C8.09116 7.11628 8.50976 6.88127 9.00915 6.88127C9.44244 6.88127 9.828 7.05386 10.1658 7.40269C10.5036 7.75153 10.6726 8.2142 10.6726 8.79437C10.6689 9.51775 10.4596 10.1567 10.0446 10.7185Z"
                  fill="#F8BE4D"/>
        </g>
        <defs>
            <clipPath id="clip0_1_324">
                <rect width="18" height="18" fill="white"/>
            </clipPath>
        </defs>
    </g>
    <g id="clock">
        <g clip-path="url(#clip0_1_116)">
            <path d="M33.0402 5.48096C12.0826 5.48096 -1.48267 28.2287 9.41145 46.9709C20.0541 64.8508 45.9706 64.9452 56.6693 46.9709C59.3411 42.3742 60.5447 37.5749 60.5447 32.9854C60.5447 17.9525 48.303 5.48096 33.0402 5.48096ZM55.6139 44.9005L53.2945 43.5614C52.8313 43.2941 52.2394 43.4526 51.9722 43.9156C51.7048 44.3787 51.8635 44.9707 52.3265 45.238L54.6419 46.5747C52.6005 49.8023 49.8563 52.5426 46.6257 54.5797L45.2928 52.2715C45.0254 51.8083 44.4333 51.6501 43.9704 51.9171C43.5074 52.1845 43.3489 52.7765 43.6162 53.2394L44.9499 55.5496C41.6601 57.291 37.9469 58.3343 34.0082 58.4818V55.8139C34.0082 55.2792 33.5748 54.8459 33.0401 54.8459C32.5055 54.8459 32.072 55.2791 32.072 55.8139V58.4818C28.1333 58.3343 24.4201 57.291 21.1303 55.5496L22.464 53.2394C22.7313 52.7764 22.5726 52.1845 22.1096 51.9171C21.6465 51.6499 21.0547 51.8083 20.7873 52.2715L19.4545 54.5798C16.224 52.5426 13.4799 49.8024 11.4382 46.5749L13.7537 45.2381C14.2167 44.9707 14.3752 44.3787 14.1079 43.9158C13.8405 43.4527 13.2485 43.2943 12.7856 43.5615L10.4662 44.9006C8.71871 41.6103 7.66993 37.8952 7.51846 33.9536H10.2112C10.7458 33.9536 11.1793 33.5204 11.1793 32.9856C11.1793 32.4509 10.7459 32.0175 10.2112 32.0175H7.51692C7.66065 28.0724 8.70324 24.3532 10.4458 21.0582L12.7861 22.4093C12.9385 22.4974 13.105 22.5391 13.2692 22.5391C13.6037 22.5391 13.9292 22.3654 14.1084 22.055C14.3758 21.5919 14.2171 21 13.754 20.7326L11.4149 19.3822C13.4543 16.1455 16.1993 13.3967 19.433 11.3529L20.7876 13.6991C20.9669 14.0097 21.2922 14.1833 21.6267 14.1833C21.791 14.1833 21.9574 14.1415 22.1099 14.0535C22.5729 13.7861 22.7315 13.1941 22.4641 12.7312L21.1076 10.3816C24.4031 8.63297 28.1243 7.58509 32.0721 7.43724V10.1568C32.0721 10.6913 32.5055 11.1249 33.0402 11.1249C33.5748 11.1249 34.0083 10.6915 34.0083 10.1568V7.43724C37.9562 7.58509 41.6773 8.63284 44.9728 10.3816L43.6163 12.7312C43.349 13.1942 43.5077 13.7861 43.9706 14.0535C44.1231 14.1415 44.2895 14.1833 44.4537 14.1833C44.7882 14.1833 45.1137 14.0095 45.2929 13.6991L46.6474 11.3529C49.8812 13.3966 52.6261 16.1455 54.6657 19.3822L52.3265 20.7326C51.8635 21 51.7049 21.592 51.9722 22.055C52.1515 22.3655 52.4768 22.5391 52.8113 22.5391C52.9756 22.5391 53.142 22.4974 53.2945 22.4093L55.6348 21.0582C57.3773 24.3532 58.4198 28.0724 58.5637 32.0175H55.8689C55.3343 32.0175 54.9008 32.4507 54.9008 32.9856C54.9008 33.5203 55.3342 33.9536 55.8689 33.9536H58.5616C58.41 37.8951 57.3614 41.6102 55.6139 44.9005Z"
                  />
            <path d="M47.4567 32.3009L44.4353 29.2794C44.0572 28.9015 43.4442 28.9015 43.0663 29.2794C42.6882 29.6576 42.6882 30.2705 43.0663 30.6485L44.4485 32.0308H37.6544V30.8625C37.6544 29.4747 36.5253 28.3456 35.1375 28.3456H34.0084V16.7133L35.3907 18.0957C35.5797 18.2848 35.8274 18.3792 36.0752 18.3792C36.3229 18.3792 36.5707 18.2848 36.7597 18.0957C37.1378 17.7176 37.1378 17.1046 36.7597 16.7267L33.7381 13.7051C33.5566 13.5235 33.3104 13.4215 33.0536 13.4215C32.7968 13.4215 32.5506 13.5235 32.3691 13.7051L29.3476 16.7267C28.9695 17.1047 28.9695 17.7177 29.3476 18.0957C29.7256 18.4737 30.3386 18.4737 30.7165 18.0957L32.0723 16.7399V28.3458H30.9432C29.5554 28.3458 28.4263 29.4749 28.4263 30.8627V35.0569C28.4263 36.4447 29.5554 37.5738 30.9432 37.5738H35.1374C36.5252 37.5738 37.6543 36.4447 37.6543 35.0569V33.967H44.422L43.0664 35.3226C42.6883 35.7006 42.6883 36.3136 43.0664 36.6915C43.2554 36.8807 43.5031 36.9751 43.7509 36.9751C43.9987 36.9751 44.2464 36.8807 44.4354 36.6917L47.457 33.6702C47.6386 33.4886 47.7406 33.2425 47.7406 32.9856C47.7403 32.7287 47.6383 32.4825 47.4567 32.3009ZM35.7181 35.0568C35.7181 35.3715 35.452 35.6376 35.1373 35.6376H30.943C30.6282 35.6376 30.3622 35.3715 30.3622 35.0568V30.8625C30.3622 30.5477 30.6282 30.2817 30.943 30.2817H35.1373C35.452 30.2817 35.7181 30.5477 35.7181 30.8625V35.0568Z"
                  />
            <path d="M65.9975 30.6333C64.8521 14.2517 51.7163 1.14538 35.3665 0.00236439C34.8338 -0.0336005 34.3705 0.367298 34.3333 0.900583C34.2962 1.43387 34.6982 1.89651 35.2315 1.93377C50.5957 3.00794 62.992 15.4042 64.0661 30.7684C64.1018 31.2788 64.527 31.669 65.0309 31.669C65.0536 31.669 65.0764 31.6682 65.0995 31.6665C65.6326 31.6293 66.0348 31.1667 65.9975 30.6333Z"
                  />
            <path d="M65.0993 34.2527C64.5668 34.2145 64.1034 34.6175 64.0661 35.1508C62.9325 51.3637 49.3042 64.0638 33.0402 64.0638C15.8894 64.0638 1.93604 50.1106 1.93604 32.9596C1.93604 16.6955 14.6361 3.06729 30.8489 1.93369C31.3822 1.89644 31.7844 1.43379 31.7472 0.900509C31.7099 0.367224 31.2469 -0.0330296 30.714 0.00229074C13.5158 1.20486 0 15.5721 0 32.9596C0 51.1781 14.8218 65.9998 33.0402 65.9998C50.4225 65.9998 64.7945 52.4888 65.9976 35.2859C66.0348 34.7524 65.6327 34.2899 65.0993 34.2527Z"
                  />
        </g>
        <defs>
            <clipPath id="clip0_1_116">
                <rect width="66" height="66" fill="white"/>
            </clipPath>
        </defs>
    </g>
    <g id="man">
        <path d="M43.5197 53.4759C42.9857 53.4759 42.5529 53.9087 42.5529 54.4426V63.5323C42.5529 63.8266 42.3133 64.0661 42.0191 64.0661H36.8219V45.0271C36.8219 44.4932 36.3891 44.0603 35.8551 44.0603C35.3212 44.0603 34.8884 44.4932 34.8884 45.0271V64.0663H24.4231L27.4579 60.7276C27.7895 60.3628 27.9458 59.8432 27.8761 59.3371C27.8748 59.3273 27.8733 59.3175 27.8716 59.3077L24.9811 42.2319L25.7599 41.0596C26.1904 41.3654 26.5221 41.6598 27.1441 41.6598C27.7767 41.6598 28.3683 41.3057 28.6593 40.7228V40.7226L31.708 34.6125L38.6529 37.3021C38.9042 37.4099 42.5526 39.0529 42.5526 43.3914V49.9308C42.5525 50.4646 42.9853 50.8976 43.5194 50.8976C44.0533 50.8976 44.4862 50.4647 44.4862 49.9308V43.3914C44.4862 37.6752 39.5918 35.5973 39.3834 35.5116C39.3774 35.509 39.3712 35.5066 39.365 35.5043L27.8062 31.0279V28.317C29.6421 26.8892 30.9151 24.7727 31.2346 22.358C32.15 22.2936 32.9994 21.9517 33.693 21.3553C34.5988 20.5763 35.1186 19.4425 35.1186 18.2453C35.1186 17.2517 34.7601 16.3029 34.1212 15.5636V11.9822C34.1211 5.37526 28.746 0 22.139 0C15.532 0 10.1569 5.37526 10.1569 11.9822V15.6575C9.51122 16.3893 9.16008 17.2901 9.16008 18.2451C9.16008 19.4428 9.67957 20.5764 10.5857 21.3555C11.2788 21.9517 12.1276 22.2932 13.0427 22.3578C13.3649 24.8177 14.6749 27.0131 16.6672 28.4601V31.0279L5.12093 35.5041C5.11487 35.5065 5.10881 35.5089 5.10275 35.5114C4.89431 35.5971 0 37.6749 0 43.3911V63.5321C0 64.8927 1.10692 65.9996 2.46752 65.9996H11.6788C12.2127 65.9996 12.6456 65.5667 12.6456 65.0328C12.6456 64.4989 12.2127 64.066 11.6788 64.066H9.59862V45.0271C9.59862 44.4932 9.16575 44.0603 8.63182 44.0603C8.09789 44.0603 7.66502 44.4932 7.66502 45.0271V64.0663H2.46765C2.17336 64.0663 1.93385 63.8268 1.93385 63.5325V43.3913C1.93385 39.0382 5.60678 37.3989 5.83236 37.3025L12.7719 34.6122L15.8208 40.7226C16.1125 41.307 16.7048 41.6598 17.3362 41.6598C17.9551 41.6598 18.2835 41.3699 18.7204 41.0596L19.4991 42.2319L16.6089 59.3078C16.6073 59.3175 16.6058 59.3272 16.6044 59.337C16.5345 59.8428 16.6909 60.3627 17.0226 60.7277L20.0574 64.0664H16.1909C15.657 64.0664 15.2241 64.4993 15.2241 65.0332C15.2241 65.5671 15.657 66 16.1909 66H42.0192C43.3798 66 44.4867 64.893 44.4867 63.5325V54.4428C44.4865 53.9087 44.0536 53.4759 43.5197 53.4759ZM29.897 33.9112L27.0547 39.6076C26.9841 39.5575 25.4778 38.4873 23.6365 37.1798C24.4355 36.1935 23.5008 37.3472 27.1473 32.8463L29.897 33.9112ZM24.1823 39.9394L23.4452 41.0489H21.0343L20.2972 39.9394L22.2398 38.5597L24.1823 39.9394ZM18.6007 31.3398V29.5305C19.7752 30.004 21.0305 30.2235 22.2564 30.2235C23.524 30.2235 24.767 29.9533 25.8725 29.4699V31.3477L22.2398 35.8317L18.6007 31.3398ZM33.1849 18.2453C33.1847 18.8786 32.9104 19.4779 32.4322 19.8892C32.116 20.1612 31.734 20.3351 31.3157 20.4032V16.0878C32.4269 16.2682 33.1849 17.1899 33.1849 18.2453ZM12.9628 20.4032C11.839 20.2208 11.0937 19.2916 11.0937 18.2451C11.0937 17.2116 11.9505 16.3703 12.9628 16.1364V20.4032ZM13.0148 14.1663C12.7068 14.2016 12.3539 14.285 12.0908 14.3745V11.9822C12.0908 6.44145 16.5984 1.93372 22.1391 1.93372C27.6799 1.93372 32.1875 6.44145 32.1875 11.9822V14.3081C31.9065 14.2226 31.615 14.1662 31.3158 14.1396C31.3158 13.2067 31.324 13.3867 28.2721 10.1056C27.7108 9.50258 26.7825 9.37625 26.0759 9.83787C22.7076 12.0382 18.5987 13.1435 14.8076 12.8713C13.976 12.809 13.2186 13.3568 13.0148 14.1663ZM14.8965 21.1643V15.1326V14.8148C19.0699 15.0592 23.4453 13.8194 26.9801 11.5557C28.3797 13.0585 29.1377 13.8467 29.3821 14.1466C29.3821 14.905 29.3821 20.296 29.3821 21.1642C29.3821 25.089 26.1819 28.2896 22.2566 28.2896C17.8487 28.2898 14.8965 24.8704 14.8965 21.1643ZM17.425 39.6076L14.5828 33.9112L17.3276 32.8481L20.8391 37.1826C19.0534 38.4507 17.5871 39.4925 17.425 39.6076ZM18.5343 59.5163L21.3327 42.9824H23.1465L25.945 59.5163L22.2397 63.5927L18.5343 59.5163Z"
              />
    </g>
    <g id="team">
        <g clip-path="url(#clip0_1_80)">
            <path d="M63.0696 37.8526C61.7381 36.5952 60.3879 36.0662 60.1259 35.971L55.6768 34.1172L52.5607 32.0609V31.0149C54.888 29.7977 56.5829 27.5323 57.0132 24.8484C58.9683 24.5884 60.4822 22.911 60.4822 20.8858C60.4822 19.8464 60.0833 18.8987 59.4312 18.1869V14.3535C59.4312 8.18543 54.4131 3.16737 48.2451 3.16737H47.3997C42.3217 3.16737 37.8917 6.57745 36.5904 11.471C35.614 11.2067 34.588 11.063 33.529 11.063H32.6384C31.523 11.063 30.4448 11.2228 29.4219 11.5149C28.1359 6.59743 23.6939 3.16724 18.6004 3.16724H17.755C11.587 3.16724 6.56893 8.1853 6.56893 14.3533V18.1869C5.91667 18.8987 5.51783 19.8464 5.51783 20.8858C5.51783 22.911 7.03171 24.5885 8.98683 24.8484C9.41699 27.5323 11.112 29.7977 13.4392 31.0149V32.0609L10.3233 34.1171L5.87413 35.9709C5.61206 36.0659 4.26203 36.5951 2.93043 37.8524C1.59354 39.1148 0 41.3846 0 45.0285V51.3622C0 51.9378 0.466641 52.4058 1.04208 52.4058H14.128C13.9339 53.2152 13.8186 54.1155 13.8186 55.1156V61.7893C13.8186 62.365 14.2853 62.833 14.8607 62.833H27.2423H29.9814H36.2261H36.229H38.7577H39.3453C39.921 62.833 40.3874 62.3667 40.3874 61.791C40.3874 61.2153 39.921 60.7489 39.3453 60.7489H38.7577H37.1137L35.8554 52.9485L36.3473 51.6384L37.0907 52.1856C37.2714 52.3188 37.4883 52.3885 37.7083 52.3885C37.7917 52.3885 37.8754 52.3785 37.9579 52.3583C38.2581 52.2841 38.5102 52.0805 38.6453 51.8023L41.4756 45.985L45.2516 47.5586C45.2743 47.568 45.2973 47.5766 45.3206 47.5845C45.3684 47.6005 50.0972 49.2574 50.0972 55.1156V60.7489H45.7741V54.8119C45.7741 54.2362 45.3077 53.7698 44.732 53.7698C44.1563 53.7698 43.6899 54.2362 43.6899 54.8119V60.7489H42.5877C42.012 60.7489 41.5456 61.2153 41.5456 61.791C41.5456 62.3667 42.012 62.833 42.5877 62.833H51.1394C51.7151 62.833 52.1815 62.3534 52.1815 61.7778V55.1153C52.1815 54.1152 52.0663 53.215 51.8721 52.4056H64.9582C65.5339 52.4056 66.0003 51.9265 66.0003 51.3511V45.0283C66 41.3846 64.4065 39.1148 63.0696 37.8526ZM55.037 23.5025C55.037 27.0256 52.1707 29.8918 48.6477 29.8918H47.0353C46.8102 29.8918 46.5857 29.8782 46.3627 29.855C46.3651 29.7958 46.3671 29.7362 46.3671 29.6764C46.3671 28.5882 45.9463 27.5968 45.2595 26.8549V22.7932C45.2595 20.9393 44.8255 19.1851 44.0562 17.625C46.3417 17.0721 49.0232 16.0143 51.0984 13.986C51.7428 15.3611 52.9464 17.1523 55.0369 17.9452V23.5025H55.037ZM50.4765 31.7751V33.9052L47.7987 36.6848L45.2047 34.1578C45.2051 34.1464 45.2065 34.1352 45.2065 34.1237V32.5549C45.2065 32.5545 45.2065 32.5543 45.2065 32.5537V32.5536C45.4058 32.3462 45.584 32.1184 45.737 31.8734C46.1656 31.9394 46.5997 31.976 47.0353 31.976H48.6477C49.2756 31.9761 49.8871 31.9055 50.4765 31.7751ZM44.2829 29.6766C44.2829 30.2024 44.0845 30.6814 43.7608 31.0475C43.5667 31.1291 43.403 31.2682 43.2897 31.443C43.1453 31.5316 42.9905 31.6051 42.8257 31.6564V27.6969C43.6691 27.9599 44.2829 28.7479 44.2829 29.6766ZM58.398 20.8857C58.398 21.7176 57.8636 22.4252 57.1212 22.6887V19.0825C57.8638 19.346 58.398 20.0537 58.398 20.8857ZM38.5833 12.082C39.6159 8.06013 43.2412 5.25139 47.3996 5.25139H48.245C53.2638 5.25139 57.3469 9.3345 57.3469 14.3533V16.9819C57.2629 16.9633 57.1784 16.9464 57.0924 16.9333C57.0025 16.5534 56.7042 16.2471 56.3102 16.1575C53.393 15.4939 52.4958 11.7707 52.4875 11.7359C52.3972 11.3365 52.0811 11.0272 51.6799 10.9452C51.2788 10.8633 50.8667 11.0237 50.6268 11.3555C48.6728 14.0569 45.4151 15.2352 42.9017 15.7489C41.7639 14.2393 40.2707 13.0126 38.5474 12.1935C38.5613 12.157 38.5735 12.1202 38.5833 12.082ZM32.6385 13.1468H33.5289V13.147C38.848 13.147 43.1755 17.4744 43.1755 22.7935V25.6335C43.0542 25.6047 42.9311 25.5806 42.8059 25.5625C42.8032 25.5488 42.7996 25.5357 42.7965 25.5222C42.7924 25.5046 42.7881 25.4871 42.7831 25.47C42.7781 25.4528 42.7721 25.4363 42.7663 25.4197C42.7612 25.4051 42.7561 25.3905 42.7503 25.3761C42.7433 25.3584 42.7354 25.3413 42.7273 25.3243C42.7212 25.3111 42.7151 25.298 42.7083 25.2851C42.6996 25.2683 42.6903 25.2522 42.6807 25.2361C42.6731 25.2232 42.6658 25.2105 42.6575 25.198C42.648 25.1833 42.6377 25.1691 42.6274 25.1548C42.6178 25.1416 42.6082 25.1284 42.5981 25.1156C42.588 25.1031 42.5777 25.0911 42.567 25.079C42.5552 25.0654 42.5433 25.052 42.5308 25.0392C42.5206 25.0287 42.5101 25.0189 42.4995 25.0089C42.4854 24.9957 42.4715 24.9826 42.4568 24.9701C42.4461 24.961 42.435 24.9525 42.424 24.9438C42.4089 24.9319 42.3934 24.92 42.3774 24.9091C42.3652 24.9004 42.3524 24.8927 42.3396 24.8846C42.3243 24.8748 42.3088 24.8651 42.2929 24.8561C42.2779 24.8476 42.2622 24.84 42.2466 24.8323C42.2323 24.8252 42.2182 24.8179 42.2035 24.8115C42.1846 24.8031 42.1652 24.7959 42.1456 24.7887C42.1334 24.784 42.1213 24.7793 42.1088 24.7751C42.0867 24.7679 42.0642 24.762 42.0415 24.7562C42.0327 24.754 42.0241 24.7508 42.0152 24.7489C38.9062 24.0414 37.9539 20.085 37.9452 20.0479C37.8549 19.6485 37.5388 19.3392 37.1378 19.2572C36.7365 19.1749 36.3245 19.3356 36.0846 19.6674C32.4628 24.6743 24.5488 24.7229 24.429 24.7229C24.4268 24.7231 24.4257 24.7229 24.424 24.7229C24.3882 24.7229 24.3527 24.7247 24.3176 24.7284C24.3094 24.7291 24.3017 24.7309 24.2934 24.732C24.2669 24.7353 24.2402 24.7388 24.2144 24.7441C24.2047 24.746 24.1953 24.7491 24.1858 24.7514C24.1619 24.757 24.1378 24.7625 24.1146 24.7696C24.1021 24.7735 24.0903 24.7786 24.0781 24.7829C24.0584 24.7898 24.0384 24.7964 24.0192 24.8044C24.0038 24.811 23.9892 24.8187 23.9742 24.8261C23.9589 24.8334 23.9433 24.8401 23.9284 24.8481C23.913 24.8565 23.8987 24.866 23.8839 24.8751C23.8701 24.8836 23.8559 24.8912 23.8426 24.9002C23.8281 24.9101 23.8144 24.9211 23.8005 24.9316C23.7878 24.9411 23.7746 24.9499 23.7626 24.96C23.7492 24.971 23.7371 24.9831 23.7242 24.9945C23.7123 25.0054 23.6998 25.0157 23.6885 25.0269C23.6766 25.0388 23.6659 25.0515 23.6547 25.0639C23.6435 25.0761 23.6317 25.0879 23.6212 25.1008C23.6107 25.1134 23.6014 25.1269 23.5917 25.14C23.5815 25.1536 23.5706 25.1666 23.5611 25.1808C23.5521 25.1941 23.5443 25.2083 23.5358 25.2221C23.5268 25.2369 23.5173 25.2512 23.5089 25.2664C23.5012 25.2807 23.4946 25.2957 23.4875 25.3105C23.48 25.3261 23.4718 25.3413 23.4649 25.3573C23.4585 25.3724 23.4536 25.3881 23.4478 25.4036C23.4417 25.4199 23.435 25.4361 23.4297 25.4529C23.4247 25.4688 23.4212 25.4852 23.4171 25.5013C23.4127 25.5184 23.4076 25.5352 23.404 25.5526C23.4033 25.5558 23.4028 25.5592 23.4022 25.5623C23.2632 25.5822 23.1264 25.609 22.9922 25.6426V22.7932C22.9922 17.4742 27.3196 13.1468 32.6385 13.1468ZM33.0602 46.4033L30.2685 43.6843C30.2696 43.6647 30.2714 43.6455 30.2714 43.6258V41.9723C30.2714 41.9712 30.2714 41.9705 30.2714 41.9697V41.0804C30.9095 41.2267 31.5726 41.3066 32.2545 41.3066H33.9534C34.6148 41.3066 35.2588 41.2316 35.8792 41.0938C35.8983 41.0931 35.9173 41.0918 35.9364 41.0909V43.4177L33.0602 46.4033ZM34.6029 50.3548L34.0606 51.7993H32.1188L31.5058 50.3362L33.0418 49.2057L34.6029 50.3548ZM19.0581 41.8278H17.2874L16.7997 40.5289L18.2175 39.4857L19.6101 40.5106L19.0581 41.8278ZM19.1958 45.9688C18.5943 46.2743 17.739 46.7922 16.8888 47.5952C16.8769 47.6063 16.8652 47.618 16.8533 47.6292L17.453 43.9121H18.864L19.1958 45.9688ZM18.2013 36.6849L15.5235 33.9053V31.7753C16.1129 31.9055 16.7244 31.9762 17.3525 31.9762H18.9648C19.4646 31.9762 19.9632 31.9323 20.4527 31.8458C20.5554 32.013 20.6691 32.1723 20.7936 32.3227V32.5526C20.7936 32.5537 20.7936 32.5548 20.7936 32.5559V34.1239C20.7936 34.1354 20.795 34.1466 20.7953 34.1581L18.2013 36.6849ZM22.5628 35.3457C22.8048 35.1102 22.9065 34.7857 22.8693 34.4746L23.7845 35.0785C23.884 35.3964 24.0026 35.7058 24.1359 36.0071L22.2564 39.8706L19.7853 38.0517L22.5628 35.3457ZM21.9245 29.6767C21.9245 28.7478 22.5385 27.9596 23.3818 27.6968V31.6564C22.5385 31.3936 21.9245 30.6055 21.9245 29.6767ZM21.3372 41.7815L22.0285 42.2902C22.2093 42.4233 22.4262 42.4931 22.6462 42.4931C22.7295 42.4931 22.8133 42.483 22.8957 42.4628C23.196 42.3886 23.448 42.185 23.5831 41.9068L25.4342 38.1017C26.1916 39.0114 27.1277 39.7662 28.1872 40.3151V41.3998L24.8464 43.6044C24.8012 43.6163 24.7561 43.6305 24.7118 43.6488L21.1709 45.1244L20.8278 42.9977L21.3372 41.7815ZM28.2185 43.8762C28.1328 44.2235 28.2272 44.6056 28.5019 44.8732L31.4759 47.7702L28.765 49.7656L26.4634 45.0344L28.2185 43.8762ZM33.9535 39.2223H32.2547C28.5116 39.2223 25.4662 36.1772 25.4662 32.434V26.7621C27.7017 26.5999 32.9901 25.8456 36.5536 22.312C37.223 23.768 38.4978 25.7028 40.742 26.5383V32.4339H40.7419C40.7417 36.1772 37.6966 39.2223 33.9535 39.2223ZM8.87868 22.6887C8.13618 22.4252 7.60199 21.7176 7.60199 20.8857C7.60199 20.0537 8.13605 19.3461 8.87868 19.0825V22.6887ZM9.94847 16.1312C9.94692 16.1312 9.9455 16.1312 9.94383 16.1312C9.93996 16.1312 9.93622 16.1317 9.93236 16.1317C9.92849 16.1317 9.92475 16.1312 9.92088 16.1312C9.4282 16.1312 9.01648 16.4735 8.90781 16.9331C8.82183 16.9463 8.73714 16.9632 8.65309 16.9817V14.3532C8.65309 9.33437 12.7362 5.25126 17.755 5.25126H18.6004C22.7588 5.25126 26.3843 8.06013 27.4167 12.0819C27.4328 12.1444 27.4548 12.2036 27.481 12.2603C26.1087 12.935 24.8872 13.8701 23.88 15.0008C22.679 13.7489 22.2607 12.003 22.2568 11.9864C22.1663 11.587 21.8504 11.2776 21.4492 11.1956C21.0483 11.1138 20.636 11.274 20.3961 11.6058C17.1545 16.087 10.0526 16.1311 9.9486 16.1311C9.94847 16.1312 9.94847 16.1312 9.94847 16.1312ZM10.963 23.5025V18.1705C13.0131 18.0143 17.6696 17.3179 20.8722 14.2231C21.247 15.0069 21.8099 15.9219 22.6245 16.69C21.5361 18.4692 20.9077 20.5591 20.9077 22.7932V26.8985C20.2446 27.6353 19.8403 28.6093 19.8403 29.6763C19.8403 29.7276 19.8424 29.7783 19.8442 29.8292C19.5535 29.8691 19.2596 29.8917 18.9647 29.8917H17.3523C13.8293 29.892 10.963 27.0256 10.963 23.5025ZM13.463 34.5424C13.502 34.7266 13.5903 34.9029 13.7307 35.0486L16.6346 38.0629L14.1783 39.8705L12.042 35.4799L13.463 34.5424ZM14.3077 50.3215H8.16505V44.7403C8.16505 44.1646 7.69841 43.6982 7.12297 43.6982C6.54753 43.6982 6.08089 44.1646 6.08089 44.7403V50.3215H2.08416V45.0285C2.08416 39.5557 6.40239 37.9935 6.58131 37.9313C6.60451 37.9235 6.62759 37.915 6.65027 37.9054L10.1876 36.4316L12.8514 41.9072C12.9868 42.1854 13.2387 42.389 13.5389 42.4632C13.6214 42.4834 13.7051 42.4934 13.7883 42.4934C14.0085 42.4934 14.2253 42.4237 14.406 42.2905L15.0551 41.8128L15.4923 42.9774L14.3077 50.3215ZM29.0938 60.749H27.2421H22.3102V60.7489V54.8119C22.3102 54.2362 21.8435 53.7698 21.2681 53.7698C20.6925 53.7698 20.226 54.2363 20.226 54.8119V60.7489H15.9028V55.1156C15.9028 49.3069 20.4889 47.6505 20.6795 47.5845C20.7027 47.5766 20.7258 47.5681 20.7485 47.5586L24.5942 45.956L27.4382 51.8023C27.5736 52.0805 27.8254 52.2841 28.1257 52.3583C28.2082 52.3784 28.2918 52.3885 28.3751 52.3885C28.5953 52.3885 28.8122 52.3188 28.9928 52.1856L29.7784 51.6075L30.3488 52.9695L29.0938 60.749ZM31.2051 60.7489L32.3128 53.8835H33.895L35.0026 60.7489H31.2051ZM37.3184 49.7654L36.4972 49.161C36.495 49.1592 36.4926 49.1576 36.4903 49.1558L34.6249 47.7829L37.7289 44.5607C37.8901 44.3934 37.983 44.1861 38.0107 43.9723L39.62 45.0341L37.3184 49.7654ZM44.8293 45.1247L41.3331 43.6675L38.024 41.484C38.0228 41.4833 38.0218 41.4827 38.0208 41.482V40.3153C39.0197 39.7978 39.9076 39.0966 40.6407 38.2556L42.4171 41.9071C42.5525 42.1852 42.8044 42.3889 43.1046 42.463C43.1871 42.4833 43.2707 42.4933 43.3541 42.4933C43.5742 42.4933 43.7911 42.4236 43.9717 42.2904L44.663 41.7817L45.1726 42.9981L44.8293 45.1247ZM43.7437 39.8703L41.9717 36.2282C42.1725 35.8059 42.3393 35.3649 42.4719 34.9094L43.1307 34.4746C43.0934 34.7857 43.1953 35.1101 43.4372 35.3457L46.2148 38.0517L43.7437 39.8703ZM49.1112 47.5952C48.2608 46.7922 47.4057 46.2741 46.8042 45.9686L47.1361 43.9121H48.5471L49.1467 47.6292C49.1348 47.6179 49.123 47.6063 49.1112 47.5952ZM48.7126 41.8278H46.942L46.39 40.5105L47.7826 39.4857L49.2004 40.529L48.7126 41.8278ZM49.3652 38.0628L52.269 35.0485C52.4094 34.9028 52.4978 34.7267 52.5369 34.5422L53.9575 35.4798L51.8215 39.8703L49.3652 38.0628ZM59.9191 50.3215V44.7403C59.9191 44.1646 59.4526 43.6982 58.877 43.6982C58.3013 43.6982 57.8349 44.1647 57.8349 44.7403V50.3215H51.6921L50.5074 42.9774L50.9445 41.8128L51.5937 42.2905C51.7744 42.4237 51.9912 42.4934 52.2113 42.4934C52.2947 42.4934 52.3783 42.4834 52.4608 42.4632C52.7611 42.3892 53.0132 42.1854 53.1483 41.9072L55.8122 36.4316L59.3495 37.9054C59.3722 37.9148 59.3952 37.9235 59.4184 37.9313C59.4633 37.9463 63.9156 39.5062 63.9156 45.0285V50.3215H59.9191Z"
                  />
        </g>
        <defs>
            <clipPath id="clip0_1_80">
                <rect width="66" height="66"/>
            </clipPath>
        </defs>
    </g>
    <g id="support">
            <path d="M20 0C11.7157 0 5 6.71575 5 15V26C5.00438 29.8641 8.13587 32.9956 12 33H13V31H12C9.24 30.9967 7.00325 28.76 7 26V15C7 7.82025 12.8203 2 20 2C27.1798 2 33 7.82025 33 15V26C32.9967 28.76 30.76 30.9967 28 31H27V33H28C31.8641 32.9956 34.9956 29.8641 35 26V15C35 6.71575 28.2843 0 20 0Z"
                  fill="white"/>
            <path d="M8.241 47.129L8.972 45.978L7.283 44.906L6.552 46.058C4.34113 49.542 4.50525 54.028 6.965 57.341V60H8.965V57C8.96513 56.7729 8.88788 56.5524 8.746 56.375C6.62 53.7173 6.41713 50.0025 8.241 47.129Z"
                  fill="white"/>
            <path d="M55 0H42C39.24 0.00325 37.0033 2.24 37 5V15C37.0033 17.76 39.24 19.9967 42 20H44V24C43.9999 24.4044 44.2434 24.7691 44.617 24.924C44.7384 24.9746 44.8685 25.0004 45 25C45.2653 25 45.5195 24.8945 45.707 24.707L50.414 20H55C57.76 19.9967 59.9967 17.76 60 15V5C59.9967 2.24 57.76 0.00325 55 0ZM58 15C58 16.6569 56.6569 18 55 18H50C49.7347 18 49.4805 18.1055 49.293 18.293L46 21.586V19C46 18.4478 45.5522 18 45 18H42C40.3431 18 39 16.6569 39 15V5C39 3.34312 40.3431 2 42 2H55C56.6569 2 58 3.34312 58 5V15Z"
                  fill="white"/>
            <path d="M49 5H42V7H49V5Z" fill="white"/>
            <path d="M55 5H51V7H55V5Z" fill="white"/>
            <path d="M55 9H42V11H55V9Z" fill="white"/>
            <path d="M49 13H42V15H49V13Z" fill="white"/>
            <path d="M33.448 46.058L32.717 44.906L31.028 45.978L31.759 47.13C33.583 50.0031 33.3801 53.7176 31.254 56.375C31.1121 56.5524 31.0349 56.7729 31.035 57V60H33.035V57.341C35.4948 54.028 35.6589 49.542 33.448 46.058Z"
                  fill="white"/>
            <path d="M59 34H50C46.248 34.0044 43.1667 36.9661 43.014 40.715L40 46.141V42C39.9956 38.1359 36.8641 35.0044 33 35H29.345L29.318 34.979L29.3 35H27C25.8954 35 25 34.1046 25 33V30.647C28.0899 28.863 29.9953 25.5679 30 22V14C29.9985 12.3431 29.5862 10.7125 28.8 9.254C28.5481 8.79 27.9789 8.60163 27.5 8.82401L10.574 16.788C10.2235 16.953 9.99988 17.3056 10 17.693V22C10.0048 25.5679 11.9101 28.863 15 30.647V33C15 34.1046 14.1046 35 13 35H7C3.13587 35.0044 0.004375 38.1359 0 42V60H2V42C2.00325 39.24 4.24 37.0032 7 37H10.182L19.187 49.582C19.372 49.8406 19.669 49.9957 19.987 50H20C20.3148 50 20.6111 49.8517 20.8 49.6L30.3 37H33C35.76 37.0032 37.9967 39.24 38 42V50C38.0005 50.5522 38.4486 50.9996 39.0009 50.9991C39.3636 50.9987 39.6978 50.8021 39.874 50.485L44.588 42H50.321L40.571 60H42.846L52.6 42H53C56.8641 41.9956 59.9956 38.8641 60 35C60 34.4477 59.5522 34 59 34ZM12 22V18.328L27.441 11.062C27.8104 11.9975 28 12.9943 28 14V22C28 26.4182 24.4183 30 20 30C15.5817 30 12 26.4182 12 22ZM20.021 47.312L16.935 43H23.271L20.021 47.312ZM24.784 41H15.5L12.637 37H13C15.2091 37 17 35.2091 17 33V31.539C18.9527 32.1536 21.0473 32.1536 23 31.539V33C23 35.2091 24.7909 37 27 37H27.8L24.784 41ZM53 40H45.1C45.5781 37.6734 47.6247 36.0026 50 36H57.9C57.4219 38.3266 55.3753 39.9974 53 40Z"
                  fill="white"/>
    </g>
    <g id="profile">
        <g clip-path="url(#clip0_1_152)">
            <path d="M9.96716 11.1659C12.9228 11.1659 15.3202 8.76847 15.3202 5.81282C15.3202 2.85717 12.9228 0.476181 9.96716 0.476181C7.01152 0.476181 4.61414 2.87357 4.61414 5.81282C4.61414 8.75207 7.01149 11.1659 9.96716 11.1659Z"
                  fill="#F8BE4D"/>
            <path d="M0.706068 19.5238H19.2939C19.688 19.5238 20 19.2118 20 18.8178C20 15.1232 16.9951 12.1018 13.2841 12.1018H6.71594C3.02135 12.1018 0 15.1067 0 18.8178C0 19.2118 0.311982 19.5238 0.706068 19.5238Z"
                  fill="#F8BE4D"/>
        </g>
        <defs>
            <clipPath id="clip0_1_152">
                <rect width="20" height="20" fill="white"/>
            </clipPath>
        </defs>
    </g>
    <g id="paper">
        <path d="M41.4539 39.8582H18.8866C18.4298 39.933 18.0718 40.291 17.997 40.7478C17.9007 41.3354 18.299 41.8896 18.8866 41.9859H41.4539C41.5694 42.0049 41.6871 42.0049 41.8025 41.9859C42.3901 41.8896 42.7883 41.3354 42.6921 40.7478C42.5958 40.1602 42.0415 39.7619 41.4539 39.8582Z"
              fill="white"/>
        <path d="M41.4539 18.0427H18.8866C18.4298 18.1175 18.0718 18.4755 17.997 18.9322C17.9007 19.5198 18.299 20.0741 18.8866 20.1703H41.4539C41.5694 20.1893 41.6871 20.1893 41.8025 20.1703C42.3901 20.0741 42.7883 19.5198 42.6921 18.9322C42.5958 18.3446 42.0415 17.9464 41.4539 18.0427Z"
              fill="white"/>
        <path d="M41.4539 34.4042H18.8866C18.4298 34.4791 18.0718 34.8371 17.997 35.2938C17.9007 35.8814 18.299 36.4356 18.8866 36.5319H41.4539C41.5694 36.5509 41.6871 36.5509 41.8025 36.5319C42.3901 36.4356 42.7883 35.8814 42.6921 35.2938C42.5958 34.7062 42.0415 34.308 41.4539 34.4042Z"
              fill="white"/>
        <path d="M41.0142 0.333333C40.8112 0.124645 40.5323 0.00691489 40.2411 0.0070922H12.0142V0C9.20745 0.00390071 6.93298 2.27837 6.92908 5.08511V54.9149C6.93298 57.7216 9.20745 59.9961 12.0142 60H47.9858C50.7926 59.9961 53.067 57.7216 53.0709 54.9149V13.156V13.1064V13.0567V12.9787V12.539V12.3901L41.0142 0.333333ZM41.3191 3.69504L49.7234 12.0993H43.5816C42.3353 12.0915 41.327 11.0832 41.3191 9.83688V3.69504ZM51.2482 54.9149C51.2404 56.5254 49.9367 57.8291 48.3262 57.8369H12.0142C10.4037 57.8291 9.1 56.5254 9.0922 54.9149V5.08511C9.1 3.47465 10.4037 2.17092 12.0142 2.16312H39.156V9.80142C39.1599 12.244 41.139 14.223 43.5816 14.227H51.2482V54.9149Z"
              fill="white"/>
        <path d="M41.4539 23.4965H18.8865C18.7711 23.4776 18.6534 23.4776 18.5379 23.4965C17.9503 23.5928 17.5521 24.1471 17.6484 24.7346C17.7447 25.3222 18.2989 25.7205 18.8865 25.6242H41.4539C41.5693 25.6432 41.687 25.6432 41.8025 25.6242C42.3901 25.5279 42.7883 24.9737 42.692 24.3861C42.5957 23.7985 42.0415 23.4003 41.4539 23.4965Z"
              fill="white"/>
        <path d="M41.4539 28.9504H18.8866C18.4298 29.0252 18.0718 29.3832 17.997 29.8399C17.9007 30.4275 18.299 30.9818 18.8866 31.078H41.4539C41.5694 31.097 41.6871 31.097 41.8025 31.078C42.3901 30.9818 42.7883 30.4275 42.6921 29.8399C42.5958 29.2523 42.0415 28.8541 41.4539 28.9504Z"
              fill="white"/>
    </g>
    <g id="logo">
        <g clip-path="url(#clip0_1_29)">
            <path d="M92.1953 20.9974C93.4924 21.3721 94.5575 21.8242 95.3905 22.3595C96.2235 22.8949 96.9613 23.4302 97.6039 23.9596C98.2465 24.495 98.7106 24.947 98.9843 25.3099L99.4246 25.8809L95.7058 29.5986C95.6285 29.4975 95.5273 29.3547 95.3905 29.1703C95.2596 28.9859 94.9561 28.6707 94.492 28.2245C94.0279 27.7784 93.5222 27.3858 92.9748 27.0468C92.4274 26.7137 91.7074 26.3984 90.8209 26.1129C89.9284 25.8274 89.024 25.6846 88.0898 25.6846C85.5313 25.6846 83.3953 26.5412 81.6817 28.2602C79.9681 29.9793 79.1053 32.1147 79.1053 34.6665C79.1053 37.2243 79.9681 39.3597 81.6817 41.0728C83.4012 42.7919 85.5373 43.6484 88.0898 43.6484C89.0835 43.6484 90.0295 43.5116 90.9458 43.238C91.8562 42.9644 92.6059 42.6432 93.2068 42.2684C93.8018 41.8937 94.3314 41.513 94.7895 41.1323C95.2477 40.7516 95.5809 40.4185 95.7832 40.1389L96.0866 39.7404L99.615 43.4581C99.5138 43.6127 99.3532 43.809 99.1449 44.0589C98.9307 44.3087 98.4726 44.7429 97.7526 45.3734C97.0327 46.0039 96.2651 46.5571 95.444 47.033C94.6229 47.5089 93.5519 47.949 92.2191 48.3416C90.8923 48.7342 89.5119 48.9364 88.0898 48.9364C83.9189 48.9364 80.4024 47.5386 77.5345 44.7489C74.6666 41.9591 73.2327 38.5983 73.2327 34.6725C73.2327 30.7466 74.6666 27.3858 77.5345 24.602C80.4024 21.8183 83.9189 20.4204 88.0898 20.4204C89.5297 20.4383 90.8982 20.6226 92.1953 20.9974Z"
                  fill="white"/>
            <path d="M126.211 21.0093V26.2913H118.411V48.3535H112.55V26.2913H104.732V21.0093H126.211Z" fill="white"/>
            <path d="M136.796 41.9115L134.446 48.3594H128.187L138.944 21.0093H145.18L155.949 48.3594H149.69L147.346 41.9115H136.796ZM142.08 27.8557L138.742 36.8376H145.4L142.08 27.8557Z"
                  fill="white"/>
            <path d="M179.035 21.0093V26.2913H171.235V48.3535H165.374V26.2913H157.556V21.0093H179.035Z" fill="white"/>
            <path d="M194.321 39.6869L184.706 21.0093H190.941L197.391 33.8992L202.865 21.0093H209.488L196.624 48.3594H190.162L194.321 39.6869Z"
                  fill="white"/>
            <path d="M230.58 20.9974C231.877 21.3721 232.943 21.8242 233.776 22.3595C234.609 22.8949 235.346 23.4302 235.989 23.9596C236.632 24.495 237.09 24.947 237.369 25.3099L237.81 25.8809L234.091 29.5986C234.014 29.4975 233.912 29.3547 233.776 29.1703C233.645 28.9859 233.347 28.6707 232.877 28.2245C232.413 27.7784 231.907 27.3858 231.36 27.0468C230.812 26.7137 230.092 26.3984 229.206 26.1129C228.313 25.8274 227.403 25.6846 226.475 25.6846C223.922 25.6846 221.78 26.5412 220.067 28.2602C218.347 29.9793 217.49 32.1147 217.49 34.6665C217.49 37.2243 218.347 39.3597 220.067 41.0728C221.786 42.7919 223.922 43.6484 226.475 43.6484C227.469 43.6484 228.421 43.5116 229.331 43.238C230.241 42.9644 230.997 42.6432 231.592 42.2684C232.187 41.8937 232.716 41.513 233.175 41.1323C233.633 40.7516 233.966 40.4185 234.168 40.1389L234.472 39.7404L238 43.4581C237.899 43.6127 237.738 43.809 237.53 44.0589C237.316 44.3087 236.852 44.7429 236.138 45.3734C235.418 46.0039 234.65 46.5571 233.829 47.033C233.014 47.5089 231.937 47.949 230.604 48.3416C229.271 48.7342 227.897 48.9364 226.475 48.9364C222.304 48.9364 218.782 47.5386 215.914 44.7489C213.046 41.9591 211.612 38.5983 211.612 34.6725C211.612 30.7466 213.046 27.3858 215.914 24.602C218.782 21.8183 222.304 20.4204 226.475 20.4204C227.915 20.4383 229.283 20.6226 230.58 20.9974Z"
                  fill="white"/>
            <path d="M75.4341 62.0762C75.922 62.0762 76.3325 62.2368 76.6657 62.558C76.993 62.8792 77.1596 63.2718 77.1596 63.7298C77.1596 64.1878 76.993 64.5804 76.6657 64.9016C76.3325 65.2228 75.922 65.3834 75.4341 65.3834H74.1905V67.2155H73.3813V62.0762H75.4341ZM74.1905 62.8078V64.6458H75.4341C75.6899 64.6458 75.9041 64.5566 76.0826 64.3782C76.2611 64.2057 76.3504 63.9856 76.3504 63.7238C76.3504 63.4681 76.2611 63.248 76.0826 63.0695C75.9041 62.8911 75.6899 62.8019 75.4341 62.8019H74.1905V62.8078Z"
                  fill="white"/>
            <path d="M82.7704 66.4779V67.2155H79.0636V62.0762H82.699V62.8078H79.8728V64.17H82.11V64.9016H79.8728V66.4779H82.7704Z"
                  fill="white"/>
            <path d="M84.5972 62.0762H87.8994V62.8078H85.4064V67.2155H84.5972V62.0762Z" fill="white"/>
            <path d="M92.9985 67.2155V63.5097L90.1366 67.2155H89.4404V62.0762H90.2437V65.7819L93.1116 62.0762H93.8077V67.2155H92.9985Z"
                  fill="white"/>
            <path d="M99.1746 62.1058C99.4126 62.1713 99.609 62.2546 99.7696 62.3557C99.9303 62.4568 100.061 62.552 100.18 62.6471C100.299 62.7423 100.382 62.8256 100.442 62.891L100.519 62.9921L100.008 63.5096C99.9957 63.4918 99.9719 63.4621 99.9481 63.4264C99.9184 63.3907 99.8589 63.3312 99.7577 63.242C99.6625 63.1527 99.5554 63.0695 99.4424 63.004C99.3293 62.9386 99.1865 62.8791 99.0021 62.8196C98.8236 62.7661 98.6272 62.7364 98.4309 62.7364C97.8954 62.7364 97.4491 62.9208 97.0743 63.2896C96.7054 63.6583 96.5209 64.1104 96.5209 64.6398C96.5209 65.1752 96.7054 65.6213 97.0743 65.996C97.4432 66.3648 97.8954 66.5492 98.4309 66.5492C98.6332 66.5492 98.8236 66.5195 99.008 66.4659C99.1925 66.4124 99.3412 66.341 99.4662 66.2637C99.5852 66.1864 99.6923 66.1031 99.7875 66.0317C99.8767 65.9544 99.9481 65.8889 99.9957 65.8295L100.055 65.7402L100.573 66.2577C100.555 66.2875 100.525 66.3232 100.484 66.3708C100.442 66.4183 100.353 66.4957 100.222 66.6206C100.085 66.7336 99.9422 66.8347 99.7934 66.9299C99.6387 67.0191 99.4424 67.1024 99.1984 67.1738C98.9545 67.2452 98.7046 67.2808 98.4428 67.2808C97.6752 67.2808 97.0326 67.0251 96.509 66.5135C95.9854 66.002 95.7236 65.3774 95.7236 64.6398C95.7236 63.9022 95.9854 63.2777 96.509 62.7661C97.0326 62.2546 97.6752 61.9988 98.4428 61.9988C98.6867 62.0047 98.9366 62.0345 99.1746 62.1058Z"
                  fill="white"/>
            <path d="M105.612 62.0762V62.8078H104.065V67.2155H103.262V62.8078H101.721V62.0762H105.612Z" fill="white"/>
            <path d="M109.278 62.0762C109.766 62.0762 110.176 62.2368 110.509 62.558C110.843 62.8792 111.003 63.2718 111.003 63.7298C111.003 64.1878 110.837 64.5804 110.509 64.9016C110.182 65.2228 109.766 65.3834 109.278 65.3834H108.028V67.2155H107.219V62.0762H109.278ZM108.028 62.8078V64.6458H109.278C109.534 64.6458 109.748 64.5566 109.926 64.3782C110.105 64.2057 110.194 63.9856 110.194 63.7238C110.194 63.4681 110.105 63.248 109.926 63.0695C109.748 62.8911 109.534 62.8019 109.278 62.8019H108.028V62.8078Z"
                  fill="white"/>
            <path d="M114.008 62.0762H114.811L116.941 67.2155H116.096L115.543 65.8593H113.27L112.717 67.2155H111.872L114.008 62.0762ZM113.562 65.1217H115.251L114.407 62.9922L113.562 65.1217Z"
                  fill="white"/>
            <path d="M121.41 62.0762V62.8078H119.869V67.2155H119.059V62.8078H117.518V62.0762H121.41Z" fill="white"/>
            <path d="M123.219 62.7722C123.742 62.2607 124.385 62.0049 125.152 62.0049C125.92 62.0049 126.562 62.2607 127.086 62.7722C127.61 63.2838 127.871 63.9083 127.871 64.6459C127.871 65.3835 127.61 66.0081 127.086 66.5196C126.562 67.0312 125.92 67.287 125.152 67.287C124.385 67.287 123.736 67.0312 123.219 66.5196C122.695 66.0081 122.439 65.3835 122.439 64.6459C122.433 63.9083 122.695 63.2838 123.219 62.7722ZM123.796 65.9962C124.165 66.365 124.617 66.5494 125.152 66.5494C125.688 66.5494 126.134 66.365 126.509 65.9962C126.878 65.6274 127.062 65.1753 127.062 64.64C127.062 64.1046 126.878 63.6585 126.509 63.2897C126.14 62.9209 125.688 62.7365 125.152 62.7365C124.617 62.7365 124.165 62.9209 123.796 63.2897C123.427 63.6585 123.242 64.1106 123.242 64.64C123.242 65.1753 123.427 65.6274 123.796 65.9962Z"
                  fill="white"/>
            <path d="M131.822 62.0762C132.31 62.0762 132.721 62.2368 133.054 62.558C133.381 62.8792 133.548 63.2718 133.548 63.7298C133.548 64.1878 133.381 64.5804 133.054 64.9016C132.721 65.2228 132.31 65.3834 131.822 65.3834H130.579V67.2155H129.77V62.0762H131.822ZM130.579 62.8078V64.6458H131.822C132.078 64.6458 132.292 64.5566 132.471 64.3782C132.649 64.2057 132.739 63.9856 132.739 63.7238C132.739 63.4681 132.649 63.248 132.471 63.0695C132.292 62.8911 132.078 62.8019 131.822 62.8019H130.579V62.8078Z"
                  fill="white"/>
            <path d="M138.623 62.1058C138.861 62.1713 139.057 62.2546 139.218 62.3557C139.379 62.4568 139.51 62.552 139.629 62.6471C139.748 62.7423 139.831 62.8256 139.885 62.891L139.962 62.9921L139.45 63.5096C139.438 63.4918 139.414 63.4621 139.391 63.4264C139.361 63.3907 139.301 63.3312 139.2 63.242C139.105 63.1527 138.998 63.0695 138.885 63.004C138.772 62.9386 138.623 62.8791 138.445 62.8196C138.266 62.7661 138.076 62.7364 137.873 62.7364C137.338 62.7364 136.892 62.9208 136.517 63.2896C136.148 63.6583 135.963 64.1104 135.963 64.6398C135.963 65.1752 136.148 65.6213 136.517 65.996C136.886 66.3648 137.338 66.5492 137.873 66.5492C138.076 66.5492 138.266 66.5195 138.451 66.4659C138.635 66.4124 138.784 66.341 138.909 66.2637C139.028 66.1864 139.135 66.1031 139.23 66.0317C139.319 65.9544 139.391 65.8889 139.438 65.8295L139.498 65.7402L140.015 66.2577C139.998 66.2875 139.968 66.3232 139.926 66.3708C139.885 66.4183 139.801 66.4957 139.664 66.6206C139.528 66.7336 139.385 66.8347 139.236 66.9299C139.081 67.0191 138.885 67.1024 138.641 67.1738C138.397 67.2452 138.147 67.2808 137.885 67.2808C137.118 67.2808 136.469 67.0251 135.952 66.5135C135.428 66.002 135.172 65.3774 135.172 64.6398C135.172 63.9022 135.434 63.2777 135.952 62.7661C136.475 62.2546 137.118 61.9988 137.885 61.9988C138.135 62.0047 138.385 62.0345 138.623 62.1058Z"
                  fill="white"/>
            <path d="M142.562 64.5744L144.877 62.0762H145.906L143.925 64.2057L146.055 67.2155H145.061L143.371 64.7886L142.562 65.6689V67.2155H141.759V62.0762H142.562V64.5744Z"
                  fill="white"/>
            <path d="M147.78 62.7722C148.304 62.2607 148.946 62.0049 149.714 62.0049C150.481 62.0049 151.124 62.2607 151.648 62.7722C152.171 63.2838 152.433 63.9083 152.433 64.6459C152.433 65.3835 152.171 66.0081 151.648 66.5196C151.124 67.0312 150.481 67.287 149.714 67.287C148.946 67.287 148.304 67.0312 147.78 66.5196C147.257 66.0081 147.001 65.3835 147.001 64.6459C147.001 63.9083 147.257 63.2838 147.78 62.7722ZM148.357 65.9962C148.726 66.365 149.178 66.5494 149.714 66.5494C150.249 66.5494 150.702 66.365 151.071 65.9962C151.439 65.6274 151.624 65.1753 151.624 64.64C151.624 64.1046 151.439 63.6585 151.071 63.2897C150.702 62.9209 150.249 62.7365 149.714 62.7365C149.178 62.7365 148.726 62.9209 148.357 63.2897C147.988 63.6585 147.804 64.1106 147.804 64.64C147.804 65.1753 147.988 65.6274 148.357 65.9962Z"
                  fill="white"/>
            <path d="M158.038 66.4779V67.2155H154.331V62.0762H157.972V62.8078H155.14V64.17H157.383V64.9016H155.14V66.4779H158.038Z"
                  fill="white"/>
            <path d="M162.554 62.7722C163.078 62.2607 163.72 62.0049 164.488 62.0049C165.255 62.0049 165.898 62.2607 166.421 62.7722C166.945 63.2838 167.207 63.9083 167.207 64.6459C167.207 65.3835 166.945 66.0081 166.421 66.5196C165.904 67.0312 165.255 67.287 164.488 67.287C163.72 67.287 163.072 67.0312 162.554 66.5196C162.03 66.0081 161.775 65.3835 161.775 64.6459C161.775 63.9083 162.03 63.2838 162.554 62.7722ZM163.137 65.9962C163.506 66.365 163.958 66.5494 164.494 66.5494C165.029 66.5494 165.475 66.365 165.85 65.9962C166.219 65.6274 166.404 65.1753 166.404 64.64C166.404 64.1046 166.219 63.6585 165.85 63.2897C165.481 62.9209 165.029 62.7365 164.494 62.7365C163.958 62.7365 163.506 62.9209 163.137 63.2897C162.768 63.6585 162.584 64.1106 162.584 64.64C162.578 65.1753 162.762 65.6274 163.137 65.9962Z"
                  fill="white"/>
            <path d="M169.105 67.2155V62.0762H172.485V62.8078H169.914V64.0569H171.235C171.711 64.0569 172.104 64.2116 172.419 64.515C172.734 64.8183 172.889 65.1931 172.889 65.6392C172.889 66.0853 172.734 66.4601 172.419 66.7634C172.104 67.0668 171.711 67.2155 171.235 67.2155H169.105ZM171.235 66.4779C171.473 66.4779 171.675 66.4006 171.836 66.234C171.997 66.0734 172.08 65.8712 172.08 65.6332C172.08 65.3953 171.997 65.1931 171.836 65.0325C171.675 64.8719 171.473 64.7886 171.235 64.7886H169.914V66.4779H171.235Z"
                  fill="white"/>
            <path d="M180.957 66.4779H181.582V68.3159H180.773V67.2155H174.787V62.0762H175.596V66.4779H177.471V62.0762H178.28V66.4779H180.148V62.0762H180.957V66.4779Z"
                  fill="white"/>
            <path d="M186.967 66.4779V67.2155H183.26V62.0762H186.895V62.8078H184.069V64.17H186.306V64.9016H184.069V66.4779H186.967Z"
                  fill="white"/>
            <path d="M191.822 62.1058C192.06 62.1713 192.256 62.2546 192.417 62.3557C192.572 62.4568 192.709 62.552 192.828 62.6471C192.947 62.7423 193.03 62.8256 193.084 62.891L193.161 62.9921L192.649 63.5096C192.637 63.4918 192.613 63.4621 192.59 63.4264C192.56 63.3907 192.5 63.3312 192.399 63.242C192.304 63.1527 192.197 63.0695 192.084 63.004C191.971 62.9386 191.822 62.8791 191.644 62.8196C191.465 62.7661 191.275 62.7364 191.072 62.7364C190.537 62.7364 190.091 62.9208 189.716 63.2896C189.347 63.6583 189.162 64.1104 189.162 64.6398C189.162 65.1752 189.347 65.6213 189.716 65.996C190.085 66.3648 190.537 66.5492 191.072 66.5492C191.275 66.5492 191.465 66.5195 191.65 66.4659C191.834 66.4124 191.983 66.341 192.108 66.2637C192.227 66.1864 192.334 66.1031 192.429 66.0317C192.518 65.9544 192.59 65.8889 192.637 65.8295L192.697 65.7402L193.214 66.2577C193.197 66.2875 193.161 66.3232 193.125 66.3708C193.083 66.4183 193 66.4957 192.863 66.6206C192.727 66.7336 192.584 66.8347 192.435 66.9299C192.28 67.0191 192.084 67.1024 191.84 67.1738C191.596 67.2452 191.346 67.2808 191.084 67.2808C190.317 67.2808 189.668 67.0251 189.151 66.5135C188.627 66.002 188.371 65.3774 188.371 64.6398C188.371 63.9022 188.633 63.2777 189.151 62.7661C189.674 62.2546 190.317 61.9988 191.084 61.9988C191.334 62.0047 191.578 62.0345 191.822 62.1058Z"
                  fill="white"/>
            <path d="M198.254 62.0762V62.8078H196.713V67.2155H195.91V62.8078H194.369V62.0762H198.254Z" fill="white"/>
            <path d="M199.866 67.2155V62.0762H201.955C202.371 62.0762 202.728 62.213 203.02 62.4866C203.317 62.7602 203.46 63.0755 203.46 63.4324C203.46 63.6406 203.419 63.825 203.335 63.9975C203.252 64.17 203.169 64.2889 203.085 64.3544L202.955 64.4614C202.972 64.4674 203.002 64.4852 203.038 64.509C203.073 64.5328 203.133 64.5804 203.228 64.6577C203.317 64.7351 203.395 64.8183 203.46 64.9076C203.526 64.9968 203.585 65.1157 203.645 65.2585C203.704 65.4013 203.728 65.5559 203.728 65.7106C203.728 66.121 203.567 66.4779 203.252 66.7694C202.937 67.0668 202.544 67.2155 202.074 67.2155H199.866ZM200.676 62.7721V64.164H201.961C202.163 64.164 202.33 64.0986 202.461 63.9677C202.592 63.8369 202.663 63.6703 202.663 63.4681C202.663 63.2658 202.597 63.0993 202.461 62.9684C202.33 62.8376 202.163 62.7721 201.961 62.7721H200.676ZM202.068 66.5136C202.306 66.5136 202.508 66.4303 202.669 66.2697C202.83 66.1091 202.913 65.9069 202.913 65.6689C202.913 65.431 202.83 65.2288 202.669 65.0682C202.508 64.9076 202.306 64.8243 202.068 64.8243H200.676V66.5136H202.068Z"
                  fill="white"/>
            <path d="M206.108 62.7722C206.632 62.2607 207.274 62.0049 208.042 62.0049C208.809 62.0049 209.458 62.2607 209.976 62.7722C210.499 63.2838 210.761 63.9083 210.761 64.6459C210.761 65.3835 210.499 66.0081 209.976 66.5196C209.458 67.0312 208.809 67.287 208.042 67.287C207.274 67.287 206.632 67.0312 206.108 66.5196C205.584 66.0081 205.329 65.3835 205.329 64.6459C205.329 63.9083 205.584 63.2838 206.108 62.7722ZM206.685 65.9962C207.054 66.365 207.506 66.5494 208.042 66.5494C208.577 66.5494 209.029 66.365 209.398 65.9962C209.767 65.6274 209.952 65.1753 209.952 64.64C209.952 64.1046 209.767 63.6585 209.398 63.2897C209.029 62.9209 208.577 62.7365 208.042 62.7365C207.506 62.7365 207.054 62.9209 206.685 63.2897C206.316 63.6585 206.132 64.1106 206.132 64.64C206.132 65.1753 206.316 65.6274 206.685 65.9962Z"
                  fill="white"/>
            <path d="M238 54.5693H73.2803V55.8542H238V54.5693Z" fill="white"/>
            <path d="M29.7797 0.166504L0.02975 17.3154L0 51.6488L29.7321 68.8334L59.4821 51.6845L59.5059 17.3511L29.7797 0.166504ZM10.9063 24.8043L27.6794 34.5L10.8944 44.1718L10.9063 24.8043ZM29.6964 56.2112L11.9059 45.9325L29.7024 35.6718L47.4929 45.9563L29.6964 56.2112ZM29.7024 33.3281L11.9238 23.0495L29.7202 12.7887L47.5048 23.0733L29.7024 33.3281Z"
                  fill="white"/>
        </g>
        <defs>
            <clipPath id="clip0_1_29">
                <rect width="238" height="69" fill="white"/>
            </clipPath>
        </defs>
    </g>
    <g id="logo_icon">
        <path d="M29.7797 0.166504L0.02975 17.3154L0 51.6488L29.7321 68.8334L59.4821 51.6845L59.5059 17.3511L29.7797 0.166504ZM10.9063 24.8043L27.6794 34.5L10.8944 44.1718L10.9063 24.8043ZM29.6964 56.2112L11.9059 45.9325L29.7024 35.6718L47.4929 45.9563L29.6964 56.2112ZM29.7024 33.3281L11.9238 23.0495L29.7202 12.7887L47.5048 23.0733L29.7024 33.3281Z"
              fill="white"/>
    </g>
    <g id="handset">
        <path d="M19.9568 15.4963C19.9002 15.3259 19.5403 15.0748 18.8773 14.7437C18.6977 14.6393 18.4418 14.4974 18.1106 14.3175C17.7792 14.1375 17.4783 13.9717 17.2086 13.8202C16.9384 13.6687 16.6852 13.5219 16.4486 13.3801C16.4108 13.3517 16.2925 13.2689 16.0936 13.1313C15.8945 12.9941 15.7267 12.8923 15.5891 12.8258C15.4519 12.7598 15.3168 12.7266 15.1842 12.7266C14.9949 12.7266 14.7584 12.8616 14.4744 13.1313C14.1904 13.4014 13.9299 13.6947 13.6933 14.0122C13.4566 14.3296 13.2056 14.6229 12.9408 14.8928C12.6755 15.1628 12.4575 15.2977 12.2873 15.2977C12.2018 15.2977 12.0952 15.2739 11.9675 15.2268C11.8399 15.1795 11.7427 15.139 11.6761 15.1063C11.61 15.0729 11.4966 15.0068 11.3355 14.9071C11.1741 14.8076 11.0844 14.7532 11.0655 14.7437C9.7682 14.0238 8.65561 13.1999 7.72749 12.2722C6.79968 11.3439 5.97569 10.2314 5.25604 8.93402C5.24658 8.91507 5.19201 8.82507 5.09265 8.66417C4.99315 8.50313 4.92683 8.38964 4.8937 8.32318C4.86056 8.25696 4.82031 8.15984 4.77305 8.03203C4.72579 7.90422 4.70205 7.79775 4.70205 7.71243C4.70205 7.54208 4.83703 7.32417 5.10693 7.05899C5.37678 6.79396 5.67042 6.54292 5.98753 6.30635C6.3049 6.06978 6.59823 5.80928 6.86819 5.5253C7.13804 5.24117 7.27296 5.00455 7.27296 4.8152C7.27296 4.68271 7.23983 4.54763 7.17361 4.41037C7.10734 4.27281 7.00555 4.10495 6.86819 3.90599C6.73077 3.70713 6.64793 3.58887 6.61948 3.55081C6.47759 3.31425 6.33097 3.06096 6.17928 2.79106C6.02758 2.52121 5.86201 2.22041 5.68201 1.88901C5.50216 1.55777 5.36022 1.302 5.25594 1.1221C4.92469 0.459356 4.6738 0.0993537 4.5033 0.0427365C4.43698 0.0143284 4.33748 0 4.20504 0C3.94921 0 3.61548 0.0472639 3.20359 0.14209C2.79155 0.236767 2.46732 0.336071 2.23055 0.4404C1.75706 0.639157 1.25522 1.21677 0.72487 2.17305C0.241932 3.063 0.000488281 3.94385 0.000488281 4.81495C0.000488281 5.07042 0.0170555 5.31898 0.05019 5.56067C0.0833245 5.80212 0.142529 6.07441 0.227853 6.37749C0.313027 6.68048 0.381734 6.90556 0.433675 7.05212C0.485665 7.19879 0.58273 7.46153 0.72482 7.84044C0.866712 8.21924 0.952035 8.45114 0.980443 8.53636C1.31184 9.46443 1.70483 10.2929 2.15931 11.0221C2.90707 12.2342 3.92752 13.4868 5.22007 14.7794C6.51266 16.072 7.76501 17.0924 8.97715 17.8404C9.70626 18.2949 10.5351 18.6878 11.463 19.0194C11.5483 19.0477 11.7802 19.1328 12.1588 19.2752C12.5376 19.4172 12.8005 19.5143 12.9471 19.5664C13.0938 19.6185 13.319 19.6873 13.6217 19.7726C13.9251 19.8579 14.1971 19.9171 14.4386 19.9505C14.6802 19.9832 14.9288 20 15.1843 20C16.0553 20 16.9362 19.7585 17.8263 19.2756C18.7825 18.7454 19.36 18.2435 19.5588 17.7696C19.6634 17.5331 19.7625 17.2088 19.8572 16.7968C19.9521 16.3849 19.9993 16.0512 19.9993 15.7955C19.9996 15.6625 19.9853 15.5632 19.9568 15.4963Z"
              fill="#F8BE4D"/>
    </g>
    <g id="phone">
        <g>
            <path d="M28.996 49C26.79 49 24.996 50.794 24.996 53C24.996 55.206 26.79 57 28.996 57C31.202 57 32.996 55.206 32.996 53C32.996 50.794 31.201 49 28.996 49ZM28.996 55C27.893 55 26.996 54.103 26.996 53C26.996 51.897 27.893 51 28.996 51C30.099 51 30.996 51.897 30.996 53C30.996 54.103 30.099 55 28.996 55Z"
                  fill="white"/>
            <path d="M25.996 5H29.996C30.548 5 30.996 4.553 30.996 4C30.996 3.447 30.548 3 29.996 3H25.996C25.444 3 24.996 3.447 24.996 4C24.996 4.553 25.443 5 25.996 5Z"
                  fill="white"/>
            <path d="M32.996 5H33.996C34.548 5 34.996 4.553 34.996 4C34.996 3.447 34.548 3 33.996 3H32.996C32.444 3 31.996 3.447 31.996 4C31.996 4.553 32.443 5 32.996 5Z"
                  fill="white"/>
            <path d="M4.19899 13.342L3.94599 12.398C3.80299 11.865 3.25699 11.546 2.72099 11.691C2.18799 11.835 1.87099 12.382 2.01399 12.916L2.26699 13.86C2.38699 14.307 2.79099 14.601 3.23199 14.601C3.31699 14.601 3.40499 14.59 3.49199 14.567C4.02499 14.423 4.34199 13.875 4.19899 13.342Z"
                  fill="white"/>
            <path d="M2.106 9.86296C2.656 9.80996 3.059 9.32196 3.006 8.77296C2.998 8.69196 2.994 8.61296 2.994 8.53196C2.994 8.37996 3.009 8.22896 3.036 8.08296C3.14199 7.53996 2.786 7.01696 2.244 6.91196C1.703 6.81296 1.178 7.16396 1.074 7.70596C1.021 7.98096 0.994995 8.26096 0.994995 8.53396C0.994995 8.67596 1.002 8.81896 1.016 8.96396C1.065 9.47996 1.5 9.86796 2.01 9.86796C2.042 9.86796 2.074 9.86696 2.106 9.86296Z"
                  fill="white"/>
            <path d="M6.72902 22.788L6.47602 21.843C6.33302 21.31 5.78602 20.989 5.25202 21.136C4.71802 21.279 4.40102 21.826 4.54402 22.361L4.79702 23.306C4.91702 23.752 5.32002 24.047 5.76202 24.047C5.84702 24.047 5.93402 24.036 6.02102 24.013C6.55602 23.87 6.87302 23.322 6.72902 22.788Z"
                  fill="white"/>
            <path d="M11.792 41.68L11.539 40.736C11.396 40.202 10.849 39.882 10.314 40.029C9.78101 40.173 9.46401 40.72 9.60701 41.254L9.86001 42.198C9.98001 42.645 10.384 42.939 10.825 42.939C10.91 42.939 10.998 42.928 11.085 42.905C11.619 42.761 11.935 42.213 11.792 41.68Z"
                  fill="white"/>
            <path d="M5.46401 18.064L5.21101 17.12C5.06801 16.586 4.52101 16.266 3.98601 16.413C3.45301 16.557 3.13601 17.104 3.27901 17.638L3.53201 18.582C3.65201 19.029 4.05601 19.323 4.49701 19.323C4.58201 19.323 4.67001 19.312 4.75701 19.289C5.29101 19.146 5.60701 18.598 5.46401 18.064Z"
                  fill="white"/>
            <path d="M4.615 6.22303C4.7 6.22303 4.787 6.21203 4.874 6.18903L5.819 5.93603C6.352 5.79303 6.669 5.24603 6.526 4.71103C6.383 4.17803 5.837 3.85503 5.301 4.00403L4.356 4.25703C3.823 4.40003 3.506 4.94703 3.649 5.48203C3.769 5.92803 4.173 6.22303 4.615 6.22303Z"
                  fill="white"/>
            <path d="M9.338 4.95605C9.423 4.95605 9.51 4.94505 9.597 4.92205L10.541 4.66905C11.074 4.52605 11.391 3.97805 11.248 3.44405C11.105 2.91005 10.56 2.59005 10.024 2.73705L9.08 2.99005C8.547 3.13305 8.23 3.68105 8.373 4.21505C8.492 4.66105 8.896 4.95605 9.338 4.95605Z"
                  fill="white"/>
            <path d="M10.526 36.957L10.273 36.012C10.13 35.479 9.58197 35.161 9.04797 35.305C8.51397 35.448 8.19796 35.996 8.34096 36.53L8.59397 37.475C8.71397 37.922 9.11797 38.216 9.55897 38.216C9.64397 38.216 9.73197 38.205 9.81797 38.182C10.353 38.039 10.669 37.49 10.526 36.957Z"
                  fill="white"/>
            <path d="M7.99501 27.511L7.74201 26.567C7.59901 26.035 7.05201 25.715 6.51701 25.86C5.98401 26.003 5.66701 26.551 5.81001 27.085L6.06301 28.029C6.18301 28.475 6.58601 28.77 7.02801 28.77C7.11301 28.77 7.20001 28.759 7.28701 28.736C7.82101 28.593 8.13801 28.044 7.99501 27.511Z"
                  fill="white"/>
            <path d="M9.26101 32.2331L9.00801 31.2891C8.86501 30.7561 8.31801 30.4341 7.78301 30.5821C7.25001 30.7251 6.93301 31.2731 7.07601 31.8071L7.32901 32.7511C7.44901 33.1971 7.85201 33.4921 8.29401 33.4921C8.37901 33.4921 8.46601 33.4811 8.55301 33.4581C9.08701 33.3151 9.40401 32.7671 9.26101 32.2331Z"
                  fill="white"/>
            <path d="M56.015 16.414C55.479 16.268 54.933 16.587 54.79 17.121L54.537 18.065C54.394 18.598 54.71 19.146 55.244 19.29C55.331 19.313 55.418 19.324 55.504 19.324C55.945 19.324 56.35 19.03 56.469 18.583L56.722 17.639C56.864 17.105 56.548 16.558 56.015 16.414Z"
                  fill="white"/>
            <path d="M57.279 11.6899C56.742 11.5439 56.197 11.8649 56.054 12.3969L55.801 13.3409C55.658 13.8739 55.975 14.4229 56.508 14.5659C56.595 14.5889 56.682 14.5999 56.767 14.5999C57.209 14.5999 57.613 14.3049 57.732 13.8589L57.985 12.9149C58.129 12.3819 57.813 11.8329 57.279 11.6899Z"
                  fill="white"/>
            <path d="M58.926 7.707C58.823 7.166 58.302 6.815 57.756 6.913C57.214 7.017 56.858 7.541 56.962 8.084C56.99 8.23 57.005 8.381 57.004 8.534C57.004 8.614 57 8.693 56.992 8.773C56.94 9.323 57.343 9.811 57.892 9.864C57.924 9.868 57.956 9.869 57.988 9.869C58.498 9.869 58.933 9.481 58.983 8.965C58.997 8.82 59.004 8.677 59.004 8.536C59.005 8.261 58.979 7.982 58.926 7.707Z"
                  fill="white"/>
            <path d="M49.459 4.66899L50.403 4.92199C50.49 4.94499 50.577 4.95599 50.662 4.95599C51.104 4.95599 51.508 4.66099 51.627 4.21499C51.77 3.68199 51.453 3.13299 50.92 2.98999L49.976 2.73699C49.438 2.58999 48.894 2.91099 48.751 3.44399C48.609 3.97799 48.926 4.52599 49.459 4.66899Z"
                  fill="white"/>
            <path d="M54.182 5.93605L55.127 6.18905C55.214 6.21205 55.301 6.22305 55.386 6.22305C55.828 6.22305 56.232 5.92805 56.351 5.48205C56.494 4.94805 56.177 4.40005 55.644 4.25705L54.699 4.00405C54.163 3.85605 53.616 4.17805 53.474 4.71105C53.332 5.24505 53.648 5.79305 54.182 5.93605Z"
                  fill="white"/>
            <path d="M54.749 21.137C54.214 20.994 53.666 21.311 53.524 21.844L53.271 22.788C53.128 23.321 53.444 23.869 53.978 24.013C54.065 24.036 54.152 24.047 54.238 24.047C54.679 24.047 55.084 23.753 55.203 23.306L55.456 22.362C55.599 21.828 55.282 21.28 54.749 21.137Z"
                  fill="white"/>
            <path d="M48.421 44.751C47.889 44.609 47.339 44.924 47.196 45.458L47.005 46.17V45.998C47.005 45.981 46.996 45.967 46.995 45.95V42.135C46.996 42.118 47.005 42.104 47.005 42.087V41.109C47.005 41.092 46.996 41.078 46.995 41.061V37.246C46.996 37.229 47.005 37.215 47.005 37.198V36.22C47.005 36.203 46.996 36.189 46.995 36.172V32.357C46.996 32.34 47.005 32.326 47.005 32.309V31.331C47.005 31.314 46.996 31.3 46.995 31.283V27.468C46.996 27.451 47.005 27.437 47.005 27.42V26.442C47.005 26.425 46.996 26.411 46.995 26.394V22.579C46.996 22.562 47.005 22.548 47.005 22.531V21.55C47.005 21.533 46.996 21.519 46.995 21.502V17.687C46.996 17.67 47.005 17.656 47.005 17.639V16.66C47.005 16.643 46.996 16.629 46.995 16.612V12.798C46.996 12.781 47.005 12.767 47.005 12.75V11.771C47.005 11.754 46.996 11.74 46.995 11.723V7.908C46.996 7.891 47.005 7.877 47.005 7.86V6.881C47.005 6.864 46.996 6.85 46.995 6.833V4.405C46.996 1.977 45.02 0 42.59 0H17.401C14.972 0 12.996 1.977 12.996 4.405V6.879V6.881V7.859V7.861V11.768V11.77V12.748V12.75V16.656V16.658V17.637V17.639V21.545V21.547V22.526V22.528V26.434V26.436V27.415V27.417V31.323V31.325V32.304V32.306V36.212V36.214V37.193V37.195V41.101V41.103V42.081V42.083V45.99V45.992V46.164L12.805 45.452C12.662 44.919 12.115 44.597 11.58 44.745C11.047 44.888 10.73 45.436 10.873 45.97L11.126 46.914C11.269 47.446 11.814 47.767 12.351 47.621C12.648 47.542 12.875 47.336 12.997 47.079V49.452C12.947 49.458 12.897 49.454 12.847 49.468C12.314 49.611 11.997 50.159 12.14 50.693L12.393 51.637C12.478 51.955 12.712 52.189 12.997 52.301V55.589C12.997 58.018 14.973 59.994 17.402 59.994H42.59C45.019 59.994 46.995 58.017 46.995 55.589V52.306C47.285 52.196 47.523 51.961 47.609 51.638L47.862 50.694C48.005 50.161 47.688 49.612 47.155 49.469C47.101 49.455 47.049 49.458 46.995 49.453V47.089C46.996 47.084 46.999 47.08 46.999 47.074C47.119 47.335 47.35 47.542 47.649 47.622C48.183 47.765 48.731 47.449 48.874 46.915L49.127 45.97C49.271 45.442 48.955 44.894 48.421 44.751ZM14.996 8H44.996V46H14.996V8ZM17.401 2H42.59C43.916 2 44.995 3.079 44.995 4.405V6H14.995V4.405C14.996 3.079 16.075 2 17.401 2ZM42.59 58H17.401C16.075 58 14.996 56.921 14.996 55.595V48H44.996V55.595C44.996 56.921 43.917 58 42.59 58Z"
                  fill="white"/>
            <path d="M50.952 35.306C50.415 35.159 49.87 35.48 49.727 36.013L49.474 36.957C49.331 37.49 49.648 38.039 50.181 38.182C50.268 38.205 50.355 38.216 50.44 38.216C50.882 38.216 51.286 37.921 51.405 37.475L51.658 36.531C51.802 35.997 51.485 35.448 50.952 35.306Z"
                  fill="white"/>
            <path d="M49.687 40.028C49.15 39.882 48.605 40.201 48.462 40.735L48.209 41.679C48.066 42.212 48.382 42.76 48.916 42.904C49.003 42.927 49.09 42.938 49.176 42.938C49.617 42.938 50.022 42.644 50.141 42.197L50.394 41.253C50.537 40.72 50.22 40.172 49.687 40.028Z"
                  fill="white"/>
            <path d="M52.217 30.5821C51.683 30.4341 51.135 30.7561 50.993 31.2891L50.74 32.2341C50.597 32.7681 50.914 33.3161 51.448 33.4591C51.534 33.4821 51.621 33.4931 51.707 33.4931C52.149 33.4931 52.553 33.1981 52.672 32.7521L52.925 31.8071C53.067 31.2721 52.75 30.7251 52.217 30.5821Z"
                  fill="white"/>
            <path d="M53.483 25.859C52.946 25.714 52.401 26.034 52.258 26.566L52.005 27.51C51.862 28.043 52.179 28.592 52.712 28.735C52.799 28.758 52.886 28.769 52.971 28.769C53.413 28.769 53.817 28.474 53.936 28.028L54.189 27.084C54.333 26.551 54.016 26.002 53.483 25.859Z"
                  fill="white"/>
        </g>
        <defs>
            <clipPath id="clip0_1_423">
                <rect width="60" height="60" fill="white"/>
            </clipPath>
        </defs>
    </g>
    <g id="phone_2">
        <path d="M13.256 0H1.74405C0.784969 0 0 0.759286 0 1.68857V23.3107C0 24.24 0.784969 25 1.74405 25H13.256C14.215 25 15 24.2414 15 23.3114V1.68857C15 0.759286 14.215 0 13.256 0ZM5.65857 1.21714H9.34143C9.458 1.21714 9.55243 1.30857 9.55243 1.42214C9.55243 1.535 9.458 1.62643 9.34143 1.62643H5.65857C5.542 1.62643 5.44757 1.535 5.44757 1.42214C5.44757 1.30857 5.542 1.21714 5.65857 1.21714ZM7.5 24.1557C7.01825 24.1557 6.62798 23.7779 6.62798 23.3107C6.62798 22.8436 7.01825 22.4664 7.5 22.4664C7.98175 22.4664 8.37202 22.8436 8.37202 23.3107C8.37202 23.7779 7.98175 24.1557 7.5 24.1557ZM13.7864 21.875H1.2136V2.67786H13.7864V21.875Z"
              />
    </g>
</svg>
