<svg width="60" height="60" viewBox="0 0 60 60" fill="none" xmlns="http://www.w3.org/2000/svg">
<g clip-path="url(#clip0_1_454)">
<path d="M20 0C11.7157 0 5 6.71575 5 15V26C5.00438 29.8641 8.13587 32.9956 12 33H13V31H12C9.24 30.9967 7.00325 28.76 7 26V15C7 7.82025 12.8203 2 20 2C27.1798 2 33 7.82025 33 15V26C32.9967 28.76 30.76 30.9967 28 31H27V33H28C31.8641 32.9956 34.9956 29.8641 35 26V15C35 6.71575 28.2843 0 20 0Z" fill="white"/>
<path d="M8.241 47.129L8.972 45.978L7.283 44.906L6.552 46.058C4.34113 49.542 4.50525 54.028 6.965 57.341V60H8.965V57C8.96513 56.7729 8.88788 56.5524 8.746 56.375C6.62 53.7173 6.41713 50.0025 8.241 47.129Z" fill="white"/>
<path d="M55 0H42C39.24 0.00325 37.0033 2.24 37 5V15C37.0033 17.76 39.24 19.9967 42 20H44V24C43.9999 24.4044 44.2434 24.7691 44.617 24.924C44.7384 24.9746 44.8685 25.0004 45 25C45.2653 25 45.5195 24.8945 45.707 24.707L50.414 20H55C57.76 19.9967 59.9967 17.76 60 15V5C59.9967 2.24 57.76 0.00325 55 0ZM58 15C58 16.6569 56.6569 18 55 18H50C49.7347 18 49.4805 18.1055 49.293 18.293L46 21.586V19C46 18.4478 45.5522 18 45 18H42C40.3431 18 39 16.6569 39 15V5C39 3.34312 40.3431 2 42 2H55C56.6569 2 58 3.34312 58 5V15Z" fill="white"/>
<path d="M49 5H42V7H49V5Z" fill="white"/>
<path d="M55 5H51V7H55V5Z" fill="white"/>
<path d="M55 9H42V11H55V9Z" fill="white"/>
<path d="M49 13H42V15H49V13Z" fill="white"/>
<path d="M33.448 46.058L32.717 44.906L31.028 45.978L31.759 47.13C33.583 50.0031 33.3801 53.7176 31.254 56.375C31.1121 56.5524 31.0349 56.7729 31.035 57V60H33.035V57.341C35.4948 54.028 35.6589 49.542 33.448 46.058Z" fill="white"/>
<path d="M59 34H50C46.248 34.0044 43.1667 36.9661 43.014 40.715L40 46.141V42C39.9956 38.1359 36.8641 35.0044 33 35H29.345L29.318 34.979L29.3 35H27C25.8954 35 25 34.1046 25 33V30.647C28.0899 28.863 29.9953 25.5679 30 22V14C29.9985 12.3431 29.5862 10.7125 28.8 9.254C28.5481 8.79 27.9789 8.60163 27.5 8.82401L10.574 16.788C10.2235 16.953 9.99988 17.3056 10 17.693V22C10.0048 25.5679 11.9101 28.863 15 30.647V33C15 34.1046 14.1046 35 13 35H7C3.13587 35.0044 0.004375 38.1359 0 42V60H2V42C2.00325 39.24 4.24 37.0032 7 37H10.182L19.187 49.582C19.372 49.8406 19.669 49.9957 19.987 50H20C20.3148 50 20.6111 49.8517 20.8 49.6L30.3 37H33C35.76 37.0032 37.9967 39.24 38 42V50C38.0005 50.5522 38.4486 50.9996 39.0009 50.9991C39.3636 50.9987 39.6978 50.8021 39.874 50.485L44.588 42H50.321L40.571 60H42.846L52.6 42H53C56.8641 41.9956 59.9956 38.8641 60 35C60 34.4477 59.5522 34 59 34ZM12 22V18.328L27.441 11.062C27.8104 11.9975 28 12.9943 28 14V22C28 26.4182 24.4183 30 20 30C15.5817 30 12 26.4182 12 22ZM20.021 47.312L16.935 43H23.271L20.021 47.312ZM24.784 41H15.5L12.637 37H13C15.2091 37 17 35.2091 17 33V31.539C18.9527 32.1536 21.0473 32.1536 23 31.539V33C23 35.2091 24.7909 37 27 37H27.8L24.784 41ZM53 40H45.1C45.5781 37.6734 47.6247 36.0026 50 36H57.9C57.4219 38.3266 55.3753 39.9974 53 40Z" fill="white"/>
</g>
<defs>
<clipPath id="clip0_1_454">
<rect width="60" height="60" fill="white"/>
</clipPath>
</defs>
</svg>
