<?xml version="1.0" standalone="no"?>
<!DOCTYPE svg PUBLIC "-//W3C//DTD SVG 20010904//EN"
 "http://www.w3.org/TR/2001/REC-SVG-20010904/DTD/svg10.dtd">
<svg version="1.0" xmlns="http://www.w3.org/2000/svg"
 width="1104.000000pt" height="1104.000000pt" viewBox="0 0 1104.000000 1104.000000"
 preserveAspectRatio="xMidYMid meet">
<metadata>
Created by potrace 1.14, written by Peter Selinger 2001-2017
</metadata>
<g transform="translate(0.000000,1104.000000) scale(0.100000,-0.100000)"
fill="#000000" stroke="none">
<path d="M5460 10997 c-53 -28 -446 -254 -595 -341 -42 -26 -79 -46 -81 -46
-3 0 -30 -16 -60 -35 -30 -19 -56 -35 -58 -35 -2 0 -69 -37 -148 -83 -78 -46
-152 -89 -163 -95 -11 -6 -54 -30 -95 -55 -147 -87 -440 -255 -525 -301 -11
-6 -27 -16 -35 -22 -8 -6 -44 -27 -80 -45 -36 -19 -67 -36 -70 -40 -4 -4 -78
-48 -202 -118 -76 -43 -104 -59 -158 -90 -30 -18 -62 -37 -70 -42 -8 -5 -27
-14 -42 -20 -16 -6 -28 -15 -28 -20 0 -5 -5 -9 -10 -9 -6 0 -40 -18 -76 -40
-36 -22 -67 -40 -69 -40 -2 0 -64 -36 -139 -80 -76 -44 -141 -80 -146 -80 -6
0 -10 -5 -10 -11 0 -5 -4 -8 -9 -5 -5 4 -11 3 -13 -1 -2 -7 -125 -79 -288
-171 -54 -30 -143 -81 -160 -92 -37 -23 -236 -137 -278 -160 -26 -13 -49 -27
-52 -30 -3 -3 -75 -46 -160 -94 -203 -116 -217 -124 -270 -154 -25 -14 -48
-30 -51 -35 -4 -5 -12 -6 -18 -3 -6 4 -11 2 -11 -4 0 -6 -8 -14 -17 -17 -10
-4 -49 -25 -88 -48 -124 -73 -170 -99 -174 -96 -2 1 -7 -1 -10 -6 -3 -4 -17
-14 -31 -22 -14 -8 -72 -42 -130 -75 -58 -32 -107 -61 -110 -63 -2 -2 -6
-1241 -7 -2752 -3 -2611 -2 -2749 14 -2755 10 -3 58 -31 108 -61 49 -30 95
-55 102 -55 7 0 13 -4 13 -9 0 -5 10 -13 23 -17 12 -4 24 -10 27 -13 5 -7 225
-134 267 -155 13 -6 23 -14 23 -18 0 -5 5 -8 11 -8 6 0 49 -23 97 -51 48 -29
103 -61 122 -71 19 -11 76 -44 125 -73 50 -29 110 -63 135 -77 25 -14 84 -48
132 -77 48 -28 91 -51 97 -51 6 0 11 -4 11 -9 0 -5 8 -11 17 -15 10 -3 36 -16
58 -29 22 -13 58 -34 80 -47 22 -12 54 -31 70 -41 17 -10 47 -27 67 -38 64
-35 83 -46 88 -51 6 -6 42 -26 85 -49 16 -9 33 -20 37 -26 5 -7 8 -7 8 0 0 6
3 6 8 -1 4 -6 32 -24 62 -41 30 -16 111 -62 179 -102 68 -39 127 -71 131 -71
5 0 10 -4 12 -8 1 -5 28 -22 58 -39 62 -34 86 -48 215 -123 110 -65 147 -86
205 -118 25 -14 62 -36 82 -49 21 -12 42 -23 48 -23 5 0 10 -4 10 -10 0 -5 4
-10 9 -10 13 0 225 -122 229 -132 2 -4 12 -8 23 -8 10 0 19 -4 19 -10 0 -5 4
-10 10 -10 5 0 34 -16 64 -35 30 -19 62 -35 71 -35 8 0 15 -5 15 -10 0 -6 8
-13 18 -17 9 -3 85 -46 167 -94 83 -48 166 -96 185 -107 19 -10 139 -79 265
-152 127 -73 239 -138 250 -144 10 -6 25 -17 33 -24 7 -7 17 -10 22 -7 5 3 10
2 12 -3 3 -7 120 -77 251 -151 46 -26 78 -45 190 -110 66 -38 95 -49 113 -45
13 3 24 10 24 15 0 5 6 9 14 9 7 0 19 7 26 15 7 8 16 12 21 9 5 -3 9 0 9 5 0
6 7 11 15 11 8 0 15 5 15 11 0 5 5 7 10 4 6 -3 10 -1 10 4 0 6 6 11 13 12 6 0
32 14 57 30 25 16 54 33 66 38 11 5 51 28 88 50 36 23 68 41 71 41 9 0 110 64
117 74 4 6 8 8 8 4 0 -3 50 22 111 58 60 35 114 64 119 64 4 0 10 4 12 9 2 5
26 20 53 35 28 14 73 39 100 56 28 16 86 50 130 75 44 25 87 50 95 55 8 5 85
49 170 98 85 49 242 139 348 201 107 61 198 111 202 111 5 0 14 8 19 18 6 9
11 14 11 9 0 -4 18 4 40 18 22 14 44 25 50 25 5 0 10 4 10 9 0 5 12 14 28 20
15 6 41 19 57 29 118 70 157 92 161 92 3 0 18 8 32 19 15 10 53 33 85 50 32
18 79 45 105 61 26 16 63 37 82 47 19 9 41 23 48 30 8 7 18 11 23 8 5 -4 9 -2
9 2 0 5 17 17 38 28 20 11 54 30 75 43 21 13 55 32 75 44 149 83 198 112 202
118 3 3 12 9 21 13 10 3 99 53 199 111 100 58 183 106 185 106 2 0 39 22 82
48 43 26 92 55 108 64 51 26 300 171 305 177 3 3 12 7 20 9 8 2 22 10 31 18 8
8 19 14 22 14 4 0 36 18 72 40 36 22 65 36 65 32 0 -4 4 -2 8 3 9 13 200 125
213 125 5 0 9 4 9 8 0 5 17 16 38 26 20 10 84 46 142 80 57 33 108 60 112 58
4 -1 8 3 8 8 0 6 10 14 22 19 23 8 23 9 23 242 1 129 4 240 9 247 4 6 4 12 -1
12 -10 0 -10 211 1 228 4 6 4 12 -1 12 -10 0 -10 121 1 138 4 6 4 12 -1 12 -4
0 -8 32 -8 70 0 39 4 70 9 70 5 0 5 6 0 13 -5 6 -8 37 -7 67 4 73 4 75 0 145
-1 33 1 66 6 73 5 6 6 12 1 12 -5 0 -9 25 -9 55 0 30 4 55 9 55 5 0 4 6 0 12
-11 16 -11 68 -1 85 5 7 4 13 -1 13 -5 0 -7 15 -5 33 5 35 5 39 0 77 -2 14 1
31 6 38 6 7 6 12 0 12 -6 0 -8 15 -6 33 6 37 5 43 0 80 -2 15 0 30 5 33 5 3 5
11 0 17 -4 7 -7 23 -5 37 2 14 3 34 3 45 -1 11 -1 27 0 35 0 8 0 26 -1 40 0
14 0 31 0 38 2 26 2 38 -2 70 -2 17 1 32 6 32 4 0 6 4 2 9 -10 17 -13 71 -3
71 5 0 6 5 3 11 -11 16 -12 69 -3 69 5 0 5 8 0 18 -5 9 -6 26 -2 37 4 11 4 29
0 41 -5 11 -4 28 1 37 6 9 6 17 1 17 -8 0 -7 69 2 77 3 3 1 15 -4 27 -4 13 -4
29 1 39 6 9 6 17 1 17 -9 0 -8 53 3 69 3 6 2 11 -2 11 -10 0 -10 41 0 57 4 7
4 14 -1 17 -8 5 -7 75 2 83 3 3 1 16 -4 29 -6 14 -6 26 1 29 5 4 6 11 2 18
-10 16 -10 57 0 57 4 0 4 8 -1 18 -5 9 -6 26 -2 37 4 11 4 30 -1 43 -5 14 -5
22 2 22 6 0 6 6 0 18 -6 11 -6 24 0 35 6 9 6 17 1 17 -10 0 -9 30 1 47 4 6 4
14 -1 17 -9 5 -9 47 1 63 4 7 3 14 -3 18 -7 4 -7 12 0 26 7 12 7 19 1 19 -7 0
-7 8 -2 23 5 12 5 31 1 42 -4 11 -4 29 0 40 4 11 4 29 0 40 -4 11 -3 25 2 32
5 7 5 14 -2 18 -7 4 -7 12 0 26 7 12 7 19 1 19 -7 0 -7 8 -2 23 5 12 5 32 0
45 -5 13 -5 22 2 22 6 0 6 6 0 18 -7 13 -7 22 0 29 8 8 7 13 0 17 -8 5 -8 13
-1 27 8 13 7 19 0 19 -8 0 -8 6 0 20 8 14 8 20 0 20 -8 0 -8 6 0 20 8 14 8 20
0 20 -8 0 -8 6 0 20 8 14 8 20 0 20 -8 0 -8 6 0 20 8 14 8 20 0 20 -8 0 -8 6
0 20 8 14 8 20 0 20 -8 0 -8 6 0 20 8 14 8 20 0 20 -8 0 -8 6 0 20 8 14 8 20
0 20 -8 0 -8 6 0 20 8 14 8 20 0 20 -8 0 -8 6 0 20 8 14 8 20 0 20 -8 0 -8 6
0 20 8 14 8 20 0 20 -8 0 -8 6 0 20 8 14 8 20 0 20 -8 0 -8 6 0 20 8 14 8 20
0 20 -8 0 -8 6 0 20 8 14 8 20 0 20 -8 0 -8 6 0 20 8 14 8 20 0 20 -8 0 -8 6
0 20 8 14 8 20 0 20 -8 0 -8 6 0 20 8 14 8 20 0 20 -8 0 -8 6 0 20 8 14 8 20
0 20 -8 0 -8 6 0 20 8 14 8 20 0 20 -7 0 -8 6 -1 18 7 13 7 22 0 29 -8 8 -7
13 0 17 8 5 8 13 1 27 -7 12 -7 19 -1 19 7 0 7 8 2 23 -5 12 -5 32 0 45 5 13
5 22 -2 22 -6 0 -6 7 1 19 7 14 7 22 0 26 -7 4 -7 11 -2 18 5 7 6 21 2 32 -4
11 -4 30 1 43 5 14 5 22 -2 22 -6 0 -6 7 1 19 7 14 7 22 0 26 -7 4 -7 11 -2
18 5 7 6 21 2 32 -4 11 -4 30 1 41 4 13 3 26 -4 33 -6 6 -7 11 -2 11 6 0 10
11 10 25 0 14 -4 25 -8 25 -4 0 -3 8 2 18 6 11 6 24 0 35 -6 9 -6 17 -2 17 10
0 10 41 0 57 -4 5 -4 13 0 17 10 9 10 56 0 56 -4 0 -5 5 -2 11 11 16 12 69 3
69 -5 0 -4 9 2 19 6 13 7 22 0 26 -5 3 -7 11 -4 18 4 11 -165 117 -187 117 -5
0 -9 5 -9 10 0 6 -5 10 -11 10 -6 0 -24 9 -40 21 -16 11 -29 18 -29 14 0 -3
-6 -1 -12 5 -20 17 -269 160 -279 160 -5 0 -9 5 -9 10 0 6 -4 10 -9 10 -4 0
-48 23 -97 51 -49 29 -105 61 -124 72 -19 10 -37 22 -40 26 -3 3 -10 7 -17 8
-7 2 -37 19 -68 38 -30 20 -55 32 -55 28 0 -4 -4 -3 -8 2 -6 9 -164 103 -328
196 -17 9 -61 35 -97 57 -37 22 -76 43 -87 47 -11 3 -20 11 -20 16 0 5 -3 8
-7 7 -8 -2 -102 50 -113 62 -3 3 -19 12 -35 21 -60 30 -120 64 -125 69 -11 12
-170 100 -180 100 -5 0 -10 5 -10 10 0 6 -6 10 -14 10 -7 0 -19 7 -26 15 -7 8
-16 12 -21 9 -5 -3 -9 -2 -9 3 0 4 -18 17 -40 27 -22 11 -40 23 -40 28 0 4 -9
8 -20 8 -11 0 -20 5 -20 10 0 6 -4 10 -10 10 -5 0 -43 20 -83 45 -41 25 -78
45 -81 45 -4 0 -27 14 -51 30 -24 17 -47 30 -50 30 -4 0 -19 8 -33 18 -15 11
-52 32 -82 49 -30 16 -94 53 -142 81 -48 29 -91 52 -97 52 -6 0 -11 4 -11 9 0
5 -8 11 -17 14 -18 6 -55 27 -164 93 -31 19 -62 34 -68 34 -6 0 -11 4 -11 9 0
5 -8 11 -17 14 -18 6 -94 48 -103 57 -3 3 -16 11 -29 18 -101 57 -175 100
-314 181 -49 28 -93 51 -98 51 -5 0 -9 5 -9 10 0 6 -5 10 -10 10 -6 0 -27 11
-48 23 -20 13 -58 35 -83 49 -80 45 -94 53 -99 58 -3 3 -21 13 -40 23 -19 9
-48 26 -65 37 -16 11 -41 24 -54 30 -13 6 -35 19 -50 29 -14 10 -48 31 -76 46
-53 29 -364 208 -402 232 -13 7 -25 12 -27 11 -2 -2 -12 4 -22 13 -16 14 -110
69 -117 69 -1 0 -13 -6 -27 -13z m40 -2017 c0 -5 5 -10 10 -10 6 0 27 -11 48
-23 35 -22 64 -39 180 -103 26 -15 58 -35 72 -44 14 -10 45 -28 70 -40 25 -12
48 -28 52 -34 4 -6 8 -7 8 -3 0 5 12 -1 26 -12 15 -12 32 -21 40 -21 7 0 14
-3 16 -8 4 -9 147 -92 159 -92 5 0 9 -5 9 -12 0 -6 3 -8 7 -5 3 4 13 1 22 -6
14 -12 123 -76 271 -159 19 -11 40 -23 45 -28 6 -4 42 -24 80 -45 39 -20 77
-44 86 -51 8 -8 18 -14 22 -14 6 0 44 -22 217 -124 25 -15 53 -29 63 -33 9 -3
17 -9 17 -14 0 -5 4 -9 9 -9 7 0 65 -32 286 -160 17 -10 59 -35 95 -55 36 -21
80 -45 98 -54 17 -8 32 -19 32 -23 0 -4 4 -8 9 -8 5 0 42 -19 83 -43 40 -24
93 -55 118 -69 25 -14 117 -67 205 -118 172 -99 209 -121 246 -142 13 -7 26
-15 29 -18 3 -3 22 -13 43 -22 20 -10 37 -22 37 -27 0 -6 -30 -27 -67 -48 -38
-20 -69 -41 -71 -45 -2 -4 -8 -8 -13 -8 -5 0 -53 -25 -107 -57 -53 -31 -109
-63 -124 -70 -15 -8 -30 -18 -33 -24 -4 -5 -13 -9 -21 -9 -8 0 -20 -5 -27 -10
-24 -21 -244 -149 -269 -157 -10 -3 -18 -9 -18 -14 0 -5 -4 -9 -10 -9 -8 0
-184 -100 -285 -162 -16 -10 -36 -21 -44 -24 -7 -4 -55 -31 -105 -61 -50 -29
-111 -63 -136 -76 -25 -12 -47 -25 -50 -28 -5 -7 -61 -39 -125 -73 -22 -12
-42 -24 -45 -27 -3 -3 -43 -27 -90 -53 -47 -26 -101 -56 -120 -68 -19 -11 -53
-30 -75 -41 -22 -12 -42 -25 -45 -28 -6 -8 -59 -36 -82 -45 -10 -3 -18 -10
-18 -15 0 -5 -9 -9 -20 -9 -11 0 -20 -3 -20 -7 0 -5 -26 -21 -58 -38 -31 -16
-58 -33 -60 -37 -2 -5 -8 -8 -14 -8 -5 0 -22 -8 -36 -18 -15 -11 -52 -32 -82
-49 -117 -63 -225 -127 -232 -137 -4 -6 -8 -7 -8 -3 0 5 -13 -1 -29 -12 -16
-12 -34 -21 -40 -21 -6 0 -11 -4 -11 -8 0 -4 -12 -13 -27 -20 -16 -7 -46 -23
-68 -37 -22 -14 -52 -30 -67 -36 -16 -6 -28 -14 -28 -18 0 -3 -13 -12 -29 -19
-27 -12 -35 -11 -73 10 -24 13 -45 25 -48 28 -3 3 -16 11 -30 19 -14 8 -109
63 -213 123 -103 59 -192 108 -197 108 -6 0 -10 5 -10 10 0 6 -4 10 -10 10 -5
0 -38 17 -72 38 -35 21 -70 42 -78 46 -8 4 -33 18 -55 31 -22 14 -52 30 -67
36 -16 6 -28 15 -28 20 0 5 -4 9 -9 9 -5 0 -55 27 -111 60 -56 33 -104 60
-107 60 -2 0 -24 14 -49 30 -24 17 -44 28 -44 24 0 -4 -8 0 -17 8 -10 8 -45
30 -78 48 -33 19 -61 37 -63 42 -2 4 -12 8 -23 8 -10 0 -19 5 -19 10 0 6 -5
10 -10 10 -6 0 -29 12 -53 27 -23 15 -60 37 -82 48 -59 33 -111 62 -200 115
-44 26 -116 68 -160 93 -44 25 -100 59 -125 74 -25 15 -47 27 -50 28 -5 0 -51
27 -228 132 -41 24 -78 43 -83 43 -5 0 -9 5 -9 10 0 6 -3 9 -7 8 -5 -1 -21 6
-38 16 -16 11 -47 30 -67 43 -21 12 -41 23 -45 23 -5 0 -24 11 -43 23 -19 13
-57 36 -85 52 -27 15 -81 45 -118 67 l-68 41 29 17 c16 10 38 21 50 24 12 4
22 11 22 16 0 4 8 10 18 13 9 4 40 20 67 37 28 17 58 33 68 37 9 3 17 9 17 14
0 5 5 9 11 9 5 0 74 37 152 82 78 46 145 82 150 80 4 -1 7 2 7 7 0 5 21 19 48
32 26 12 49 25 52 29 4 5 118 71 160 93 8 4 38 21 65 37 28 17 61 36 75 43 14
6 31 17 38 24 7 7 20 13 28 13 8 0 14 5 14 10 0 6 4 10 10 10 5 0 47 23 94 50
47 28 87 50 91 50 3 0 11 5 18 10 19 17 269 160 279 160 4 0 8 4 8 8 0 4 16
14 35 21 19 7 35 17 35 22 0 5 4 9 10 9 5 0 95 50 200 110 105 61 195 110 200
110 5 0 10 4 12 8 3 7 152 95 266 157 20 11 39 23 40 28 2 4 8 5 13 1 5 -3 9
0 9 6 0 6 5 8 10 5 6 -3 10 -2 10 2 0 5 17 17 37 28 21 11 98 55 171 98 73 42
137 77 142 77 4 0 10 4 12 8 4 12 59 40 81 41 9 1 17 -3 17 -9z m-2915 -1978
c186 -107 249 -142 256 -142 5 0 9 -4 9 -10 0 -5 11 -12 25 -16 14 -3 25 -10
25 -15 0 -5 4 -9 9 -9 12 0 152 -80 169 -97 7 -7 22 -13 33 -13 10 0 19 -4 19
-8 0 -5 15 -16 33 -25 17 -9 39 -21 47 -26 48 -30 173 -101 178 -101 3 0 13
-6 21 -14 9 -8 23 -16 31 -18 8 -2 18 -7 22 -13 4 -5 11 -10 15 -10 4 0 19 -8
33 -17 14 -9 113 -67 220 -128 107 -62 211 -122 230 -133 19 -11 60 -34 90
-50 30 -17 57 -33 60 -36 6 -7 33 -22 100 -58 25 -13 72 -40 105 -60 59 -35
94 -55 158 -92 17 -10 120 -69 227 -131 107 -62 215 -125 241 -139 144 -82
199 -116 199 -121 0 -4 -24 -20 -52 -36 -29 -16 -62 -34 -73 -41 -11 -7 -27
-15 -35 -19 -8 -4 -33 -19 -55 -32 -22 -14 -65 -39 -95 -55 -30 -17 -57 -33
-60 -36 -3 -3 -23 -15 -45 -27 -22 -12 -101 -56 -175 -99 -74 -43 -149 -86
-167 -96 -17 -10 -49 -28 -70 -41 -21 -13 -49 -29 -63 -36 -14 -7 -47 -26 -75
-42 -27 -17 -61 -36 -75 -42 -14 -7 -27 -15 -30 -18 -4 -5 -64 -40 -259 -152
-25 -14 -67 -38 -93 -52 -26 -14 -92 -53 -148 -86 -55 -33 -103 -60 -106 -60
-3 0 -18 -8 -32 -19 -15 -10 -49 -31 -77 -45 -27 -15 -63 -36 -80 -47 -16 -10
-37 -22 -45 -26 -8 -4 -52 -28 -97 -55 -45 -26 -86 -48 -92 -48 -6 0 -11 -3
-11 -8 0 -4 -21 -18 -47 -32 -27 -13 -76 -41 -111 -62 -34 -21 -65 -38 -67
-38 -3 0 -34 -18 -69 -40 -35 -22 -65 -40 -68 -40 -3 0 -47 -25 -97 -55 -51
-30 -95 -55 -100 -55 -6 0 -8 3076 -2 3087 0 2 16 -6 34 -17 17 -10 55 -32 82
-48z m2922 -1692 c7 -8 13 -10 13 -5 0 7 3 7 8 0 4 -5 27 -21 52 -34 25 -13
52 -30 60 -37 8 -7 17 -12 20 -12 3 1 24 -11 47 -25 24 -15 45 -27 48 -27 9 0
89 -54 97 -65 4 -5 8 -7 8 -3 0 6 91 -43 170 -91 8 -5 95 -56 194 -113 98 -57
199 -116 225 -131 25 -15 58 -32 74 -38 15 -6 27 -15 27 -20 0 -5 4 -9 9 -9 6
0 61 -30 123 -66 62 -37 133 -78 158 -92 25 -14 77 -44 115 -67 39 -23 102
-59 140 -80 39 -21 72 -41 75 -44 3 -3 19 -13 35 -22 67 -34 120 -64 125 -70
3 -4 28 -19 55 -33 28 -15 68 -38 90 -52 22 -14 48 -27 58 -31 9 -3 17 -10 17
-16 0 -6 3 -8 6 -4 4 3 26 -7 50 -23 23 -17 45 -30 48 -30 3 0 29 -14 58 -31
55 -33 91 -54 156 -90 20 -12 74 -43 120 -70 45 -27 87 -49 92 -49 6 0 10 -4
10 -9 0 -4 28 -23 63 -40 100 -52 157 -85 157 -92 0 -8 -206 -129 -220 -129
-5 0 -10 -3 -10 -7 0 -5 -10 -13 -23 -19 -12 -6 -78 -43 -146 -82 -69 -40
-128 -72 -132 -72 -4 0 -9 -3 -11 -7 -1 -5 -29 -21 -60 -38 -32 -16 -58 -33
-58 -37 0 -4 -4 -8 -10 -8 -8 0 -177 -95 -430 -243 -19 -11 -51 -29 -70 -39
-19 -10 -63 -36 -97 -58 -35 -21 -63 -37 -63 -35 0 2 -36 -18 -80 -45 -44 -28
-82 -50 -84 -50 -2 0 -40 -21 -83 -47 -43 -25 -103 -60 -133 -76 -30 -17 -66
-38 -79 -48 -13 -11 -27 -16 -32 -13 -5 3 -9 0 -9 -5 0 -6 -7 -11 -15 -11 -8
0 -15 -4 -15 -9 0 -5 -11 -12 -25 -15 -14 -4 -25 -11 -25 -16 0 -6 -5 -10 -11
-10 -8 0 -93 -47 -199 -109 -131 -78 -332 -191 -340 -191 -6 0 -10 -4 -10 -9
0 -5 -8 -11 -17 -14 -10 -4 -36 -18 -58 -32 -22 -13 -47 -28 -55 -32 -8 -4
-58 -33 -110 -64 -53 -31 -105 -59 -116 -63 -15 -4 -43 7 -96 39 -41 25 -80
45 -86 45 -6 0 -12 4 -14 8 -1 4 -52 36 -113 70 -60 35 -117 67 -125 72 -143
84 -222 130 -225 130 -3 0 -29 16 -59 35 -30 19 -57 35 -60 35 -3 0 -29 14
-58 31 -29 18 -68 40 -85 50 -18 11 -48 27 -65 38 -18 10 -57 32 -86 50 -29
17 -57 31 -62 31 -6 0 -10 5 -10 10 0 6 -4 10 -10 10 -5 0 -55 27 -111 60 -55
33 -103 60 -105 60 -2 0 -23 12 -47 27 -23 14 -67 40 -97 56 -30 16 -62 35
-70 41 -8 7 -28 18 -45 26 -16 8 -32 18 -35 21 -3 3 -34 22 -70 41 -36 20
-132 75 -215 123 -82 48 -175 101 -205 118 -30 16 -62 35 -70 42 -8 7 -23 15
-32 18 -10 4 -42 21 -70 39 -29 18 -71 42 -93 53 -22 11 -46 26 -53 33 -8 7
-28 19 -45 27 -18 8 -50 26 -72 40 -22 13 -49 29 -60 34 -11 6 -38 22 -60 35
-22 14 -59 35 -83 47 -24 13 -47 28 -52 34 -6 7 35 35 122 85 72 41 151 87
177 102 25 15 57 33 71 40 14 7 28 17 32 23 4 5 8 7 8 3 0 -4 8 -1 18 7 9 8
20 15 24 15 5 0 32 15 60 33 29 19 60 37 68 40 8 4 22 11 30 17 17 11 211 124
310 180 36 20 81 46 100 58 19 12 47 27 63 33 15 6 27 15 27 20 0 5 4 9 9 9 8
0 130 68 246 137 28 16 57 32 65 36 8 4 29 15 45 26 46 28 107 63 140 79 17 9
32 18 35 21 5 6 36 24 100 58 19 10 37 21 40 24 3 4 25 17 50 29 25 12 47 26
50 30 3 3 35 22 73 41 37 18 67 37 67 41 0 5 4 8 10 8 5 0 47 23 94 50 47 28
89 50 95 50 6 0 11 5 11 10 0 6 7 10 15 10 8 0 15 5 15 12 0 6 3 9 6 5 4 -3
25 6 48 21 22 15 52 33 66 40 25 12 43 22 91 54 14 10 29 15 33 11 3 -3 6 -2
6 3 0 5 26 23 58 39 31 17 59 33 60 38 2 4 8 7 13 7 6 0 35 16 65 35 30 19 60
36 67 38 6 1 18 8 25 15 17 15 43 12 59 -8z"/>
</g>
</svg>
